<?xml version="1.0" encoding="utf-8" standalone="no"?>
<!DOCTYPE svg PUBLIC "-//W3C//DTD SVG 1.1//EN"
  "http://www.w3.org/Graphics/SVG/1.1/DTD/svg11.dtd">
<svg xmlns:xlink="http://www.w3.org/1999/xlink" width="460.8pt" height="345.6pt" viewBox="0 0 460.8 345.6" xmlns="http://www.w3.org/2000/svg" version="1.1">
 <metadata>
  <rdf:RDF xmlns:dc="http://purl.org/dc/elements/1.1/" xmlns:cc="http://creativecommons.org/ns#" xmlns:rdf="http://www.w3.org/1999/02/22-rdf-syntax-ns#">
   <cc:Work>
    <dc:type rdf:resource="http://purl.org/dc/dcmitype/StillImage"/>
    <dc:date>2024-10-24T11:25:02.110448</dc:date>
    <dc:format>image/svg+xml</dc:format>
    <dc:creator>
     <cc:Agent>
      <dc:title>Matplotlib v3.9.2, https://matplotlib.org/</dc:title>
     </cc:Agent>
    </dc:creator>
   </cc:Work>
  </rdf:RDF>
 </metadata>
 <defs>
  <style type="text/css">*{stroke-linejoin: round; stroke-linecap: butt}</style>
 </defs>
 <g id="figure_1">
  <g id="patch_1">
   <path d="M 0 345.6 
L 460.8 345.6 
L 460.8 0 
L 0 0 
z
" style="fill: #ffffff"/>
  </g>
  <g id="axes_1">
   <g id="patch_2">
    <path d="M 57.6 276.48 
L 414.72 276.48 
L 414.72 41.472 
L 57.6 41.472 
z
" style="fill: #e5e5e5"/>
   </g>
   <g id="matplotlib.axis_1">
    <g id="xtick_1">
     <g id="line2d_1">
      <path d="M 73.364642 276.48 
L 73.364642 41.472 
" clip-path="url(#pf90733bc2c)" style="fill: none; stroke: #ffffff; stroke-width: 0.8; stroke-linecap: square"/>
     </g>
     <g id="line2d_2">
      <defs>
       <path id="m033f84d591" d="M 0 0 
L 0 3.5 
" style="stroke: #555555; stroke-width: 0.8"/>
      </defs>
      <g>
       <use xlink:href="#m033f84d591" x="73.364642" y="276.48" style="fill: #555555; stroke: #555555; stroke-width: 0.8"/>
      </g>
     </g>
     <g id="text_1">
      <!-- 10-23 00 -->
      <g style="fill: #555555" transform="translate(37.746565 309.759423) rotate(-30) scale(0.1 -0.1)">
       <defs>
        <path id="Avenir-Book-31" d="M 2227 0 
L 1766 0 
L 1766 3955 
L 954 3238 
L 666 3584 
L 1818 4531 
L 2227 4531 
L 2227 0 
z
" transform="scale(0.015625)"/>
        <path id="Avenir-Book-30" d="M 1779 4186 
Q 1408 4186 1193 3987 
Q 979 3789 870 3494 
Q 762 3200 733 2867 
Q 704 2534 704 2266 
Q 704 1997 733 1664 
Q 762 1331 870 1036 
Q 979 742 1193 544 
Q 1408 346 1779 346 
Q 2150 346 2364 544 
Q 2579 742 2688 1036 
Q 2797 1331 2825 1664 
Q 2854 1997 2854 2266 
Q 2854 2534 2825 2867 
Q 2797 3200 2688 3494 
Q 2579 3789 2364 3987 
Q 2150 4186 1779 4186 
z
M 1779 4608 
Q 2266 4608 2566 4384 
Q 2867 4160 3033 3814 
Q 3200 3469 3257 3056 
Q 3315 2643 3315 2266 
Q 3315 1888 3257 1475 
Q 3200 1062 3033 716 
Q 2867 371 2566 147 
Q 2266 -77 1779 -77 
Q 1293 -77 992 147 
Q 691 371 524 716 
Q 358 1062 300 1475 
Q 243 1888 243 2266 
Q 243 2643 300 3056 
Q 358 3469 524 3814 
Q 691 4160 992 4384 
Q 1293 4608 1779 4608 
z
" transform="scale(0.015625)"/>
        <path id="Avenir-Book-2d" d="M 1888 1325 
L 243 1325 
L 243 1747 
L 1888 1747 
L 1888 1325 
z
" transform="scale(0.015625)"/>
        <path id="Avenir-Book-32" d="M 3187 0 
L 307 0 
L 307 531 
L 2112 2368 
Q 2214 2470 2316 2585 
Q 2419 2701 2502 2829 
Q 2586 2957 2637 3097 
Q 2688 3238 2688 3392 
Q 2688 3578 2621 3725 
Q 2554 3872 2432 3974 
Q 2310 4077 2150 4131 
Q 1990 4186 1811 4186 
Q 1466 4186 1222 3994 
Q 979 3802 909 3475 
L 422 3526 
Q 518 4032 886 4320 
Q 1254 4608 1779 4608 
Q 2054 4608 2300 4534 
Q 2547 4461 2736 4313 
Q 2925 4166 3037 3945 
Q 3149 3725 3149 3430 
Q 3149 3168 3069 2950 
Q 2989 2733 2861 2541 
Q 2733 2349 2569 2176 
Q 2406 2003 2234 1837 
L 806 422 
L 3187 422 
L 3187 0 
z
" transform="scale(0.015625)"/>
        <path id="Avenir-Book-33" d="M 1306 2586 
L 1542 2586 
Q 1741 2586 1923 2630 
Q 2106 2675 2240 2774 
Q 2374 2874 2454 3034 
Q 2534 3194 2534 3418 
Q 2534 3782 2313 3984 
Q 2093 4186 1696 4186 
Q 1408 4186 1190 4058 
Q 973 3930 832 3686 
L 429 3891 
Q 634 4256 950 4432 
Q 1267 4608 1683 4608 
Q 1952 4608 2189 4531 
Q 2426 4454 2605 4304 
Q 2784 4154 2889 3933 
Q 2995 3712 2995 3430 
Q 2995 3245 2934 3078 
Q 2874 2912 2768 2777 
Q 2662 2643 2521 2544 
Q 2381 2445 2227 2394 
L 2246 2381 
Q 2438 2342 2598 2236 
Q 2758 2131 2873 1977 
Q 2989 1824 3053 1632 
Q 3117 1440 3117 1229 
Q 3117 915 3001 672 
Q 2886 429 2688 262 
Q 2490 96 2227 9 
Q 1965 -77 1670 -77 
Q 1171 -77 800 140 
Q 429 358 243 838 
L 730 986 
Q 845 659 1072 502 
Q 1299 346 1709 346 
Q 1901 346 2073 410 
Q 2246 474 2377 592 
Q 2509 710 2582 876 
Q 2656 1043 2656 1242 
Q 2656 1498 2560 1674 
Q 2464 1850 2304 1958 
Q 2144 2067 1936 2115 
Q 1728 2163 1504 2163 
L 1306 2163 
L 1306 2586 
z
" transform="scale(0.015625)"/>
        <path id="Avenir-Book-20" transform="scale(0.015625)"/>
       </defs>
       <use xlink:href="#Avenir-Book-31"/>
       <use xlink:href="#Avenir-Book-30" x="55.599991"/>
       <use xlink:href="#Avenir-Book-2d" x="111.199982"/>
       <use xlink:href="#Avenir-Book-32" x="144.499969"/>
       <use xlink:href="#Avenir-Book-33" x="200.09996"/>
       <use xlink:href="#Avenir-Book-20" x="255.699951"/>
       <use xlink:href="#Avenir-Book-30" x="283.499939"/>
       <use xlink:href="#Avenir-Book-30" x="339.09993"/>
      </g>
     </g>
    </g>
    <g id="xtick_2">
     <g id="line2d_3">
      <path d="M 114.133317 276.48 
L 114.133317 41.472 
" clip-path="url(#pf90733bc2c)" style="fill: none; stroke: #ffffff; stroke-width: 0.8; stroke-linecap: square"/>
     </g>
     <g id="line2d_4">
      <g>
       <use xlink:href="#m033f84d591" x="114.133317" y="276.48" style="fill: #555555; stroke: #555555; stroke-width: 0.8"/>
      </g>
     </g>
     <g id="text_2">
      <!-- 10-23 03 -->
      <g style="fill: #555555" transform="translate(78.51524 309.759423) rotate(-30) scale(0.1 -0.1)">
       <use xlink:href="#Avenir-Book-31"/>
       <use xlink:href="#Avenir-Book-30" x="55.599991"/>
       <use xlink:href="#Avenir-Book-2d" x="111.199982"/>
       <use xlink:href="#Avenir-Book-32" x="144.499969"/>
       <use xlink:href="#Avenir-Book-33" x="200.09996"/>
       <use xlink:href="#Avenir-Book-20" x="255.699951"/>
       <use xlink:href="#Avenir-Book-30" x="283.499939"/>
       <use xlink:href="#Avenir-Book-33" x="339.09993"/>
      </g>
     </g>
    </g>
    <g id="xtick_3">
     <g id="line2d_5">
      <path d="M 154.901992 276.48 
L 154.901992 41.472 
" clip-path="url(#pf90733bc2c)" style="fill: none; stroke: #ffffff; stroke-width: 0.8; stroke-linecap: square"/>
     </g>
     <g id="line2d_6">
      <g>
       <use xlink:href="#m033f84d591" x="154.901992" y="276.48" style="fill: #555555; stroke: #555555; stroke-width: 0.8"/>
      </g>
     </g>
     <g id="text_3">
      <!-- 10-23 06 -->
      <g style="fill: #555555" transform="translate(119.283914 309.759423) rotate(-30) scale(0.1 -0.1)">
       <defs>
        <path id="Avenir-Book-36" d="M 768 1325 
Q 768 1107 841 928 
Q 915 749 1049 617 
Q 1184 486 1369 416 
Q 1555 346 1779 346 
Q 2003 346 2188 416 
Q 2374 486 2508 617 
Q 2643 749 2716 928 
Q 2790 1107 2790 1325 
Q 2790 1542 2716 1721 
Q 2643 1901 2508 2029 
Q 2374 2157 2188 2230 
Q 2003 2304 1779 2304 
Q 1555 2304 1369 2230 
Q 1184 2157 1049 2029 
Q 915 1901 841 1721 
Q 768 1542 768 1325 
z
M 1229 2586 
L 1242 2573 
Q 1350 2650 1532 2688 
Q 1715 2726 1869 2726 
Q 2163 2726 2416 2620 
Q 2669 2515 2854 2329 
Q 3040 2144 3145 1888 
Q 3251 1632 3251 1325 
Q 3251 1011 3142 755 
Q 3034 499 2835 313 
Q 2637 128 2368 25 
Q 2099 -77 1779 -77 
Q 1459 -77 1190 25 
Q 922 128 723 313 
Q 525 499 416 755 
Q 307 1011 307 1325 
Q 307 1702 419 1984 
Q 531 2266 698 2541 
L 1920 4531 
L 2464 4531 
L 1229 2586 
z
" transform="scale(0.015625)"/>
       </defs>
       <use xlink:href="#Avenir-Book-31"/>
       <use xlink:href="#Avenir-Book-30" x="55.599991"/>
       <use xlink:href="#Avenir-Book-2d" x="111.199982"/>
       <use xlink:href="#Avenir-Book-32" x="144.499969"/>
       <use xlink:href="#Avenir-Book-33" x="200.09996"/>
       <use xlink:href="#Avenir-Book-20" x="255.699951"/>
       <use xlink:href="#Avenir-Book-30" x="283.499939"/>
       <use xlink:href="#Avenir-Book-36" x="339.09993"/>
      </g>
     </g>
    </g>
    <g id="xtick_4">
     <g id="line2d_7">
      <path d="M 195.670666 276.48 
L 195.670666 41.472 
" clip-path="url(#pf90733bc2c)" style="fill: none; stroke: #ffffff; stroke-width: 0.8; stroke-linecap: square"/>
     </g>
     <g id="line2d_8">
      <g>
       <use xlink:href="#m033f84d591" x="195.670666" y="276.48" style="fill: #555555; stroke: #555555; stroke-width: 0.8"/>
      </g>
     </g>
     <g id="text_4">
      <!-- 10-23 09 -->
      <g style="fill: #555555" transform="translate(160.052589 309.759423) rotate(-30) scale(0.1 -0.1)">
       <defs>
        <path id="Avenir-Book-39" d="M 2790 3206 
Q 2790 3424 2716 3603 
Q 2643 3782 2508 3910 
Q 2374 4038 2188 4112 
Q 2003 4186 1779 4186 
Q 1555 4186 1369 4112 
Q 1184 4038 1049 3910 
Q 915 3782 841 3603 
Q 768 3424 768 3206 
Q 768 2989 841 2809 
Q 915 2630 1049 2499 
Q 1184 2368 1369 2297 
Q 1555 2227 1779 2227 
Q 2003 2227 2188 2297 
Q 2374 2368 2508 2499 
Q 2643 2630 2716 2809 
Q 2790 2989 2790 3206 
z
M 2330 1946 
L 2317 1958 
Q 2208 1882 2025 1843 
Q 1843 1805 1690 1805 
Q 1395 1805 1142 1910 
Q 890 2016 704 2201 
Q 518 2387 412 2643 
Q 307 2899 307 3206 
Q 307 3520 416 3776 
Q 525 4032 723 4217 
Q 922 4403 1190 4505 
Q 1459 4608 1779 4608 
Q 2099 4608 2368 4505 
Q 2637 4403 2835 4217 
Q 3034 4032 3142 3776 
Q 3251 3520 3251 3206 
Q 3251 2829 3139 2547 
Q 3027 2266 2861 1990 
L 1638 0 
L 1094 0 
L 2330 1946 
z
" transform="scale(0.015625)"/>
       </defs>
       <use xlink:href="#Avenir-Book-31"/>
       <use xlink:href="#Avenir-Book-30" x="55.599991"/>
       <use xlink:href="#Avenir-Book-2d" x="111.199982"/>
       <use xlink:href="#Avenir-Book-32" x="144.499969"/>
       <use xlink:href="#Avenir-Book-33" x="200.09996"/>
       <use xlink:href="#Avenir-Book-20" x="255.699951"/>
       <use xlink:href="#Avenir-Book-30" x="283.499939"/>
       <use xlink:href="#Avenir-Book-39" x="339.09993"/>
      </g>
     </g>
    </g>
    <g id="xtick_5">
     <g id="line2d_9">
      <path d="M 236.439341 276.48 
L 236.439341 41.472 
" clip-path="url(#pf90733bc2c)" style="fill: none; stroke: #ffffff; stroke-width: 0.8; stroke-linecap: square"/>
     </g>
     <g id="line2d_10">
      <g>
       <use xlink:href="#m033f84d591" x="236.439341" y="276.48" style="fill: #555555; stroke: #555555; stroke-width: 0.8"/>
      </g>
     </g>
     <g id="text_5">
      <!-- 10-23 12 -->
      <g style="fill: #555555" transform="translate(200.821263 309.759423) rotate(-30) scale(0.1 -0.1)">
       <use xlink:href="#Avenir-Book-31"/>
       <use xlink:href="#Avenir-Book-30" x="55.599991"/>
       <use xlink:href="#Avenir-Book-2d" x="111.199982"/>
       <use xlink:href="#Avenir-Book-32" x="144.499969"/>
       <use xlink:href="#Avenir-Book-33" x="200.09996"/>
       <use xlink:href="#Avenir-Book-20" x="255.699951"/>
       <use xlink:href="#Avenir-Book-31" x="283.499939"/>
       <use xlink:href="#Avenir-Book-32" x="339.09993"/>
      </g>
     </g>
    </g>
    <g id="xtick_6">
     <g id="line2d_11">
      <path d="M 277.208016 276.48 
L 277.208016 41.472 
" clip-path="url(#pf90733bc2c)" style="fill: none; stroke: #ffffff; stroke-width: 0.8; stroke-linecap: square"/>
     </g>
     <g id="line2d_12">
      <g>
       <use xlink:href="#m033f84d591" x="277.208016" y="276.48" style="fill: #555555; stroke: #555555; stroke-width: 0.8"/>
      </g>
     </g>
     <g id="text_6">
      <!-- 10-23 15 -->
      <g style="fill: #555555" transform="translate(241.589938 309.759423) rotate(-30) scale(0.1 -0.1)">
       <defs>
        <path id="Avenir-Book-35" d="M 2976 4109 
L 1120 4109 
L 1094 2746 
Q 1242 2803 1395 2828 
Q 1549 2854 1702 2854 
Q 2022 2854 2284 2745 
Q 2547 2637 2736 2441 
Q 2925 2246 3030 1980 
Q 3136 1715 3136 1402 
Q 3136 1075 3021 803 
Q 2906 531 2701 336 
Q 2496 141 2217 32 
Q 1939 -77 1613 -77 
Q 1184 -77 838 128 
Q 493 333 307 730 
L 762 928 
Q 890 659 1120 502 
Q 1350 346 1651 346 
Q 1869 346 2054 426 
Q 2240 506 2377 640 
Q 2515 774 2595 960 
Q 2675 1146 2675 1357 
Q 2675 1594 2592 1792 
Q 2509 1990 2361 2134 
Q 2214 2278 2009 2355 
Q 1805 2432 1562 2432 
Q 1318 2432 1078 2365 
Q 838 2298 621 2182 
L 666 4531 
L 2976 4531 
L 2976 4109 
z
" transform="scale(0.015625)"/>
       </defs>
       <use xlink:href="#Avenir-Book-31"/>
       <use xlink:href="#Avenir-Book-30" x="55.599991"/>
       <use xlink:href="#Avenir-Book-2d" x="111.199982"/>
       <use xlink:href="#Avenir-Book-32" x="144.499969"/>
       <use xlink:href="#Avenir-Book-33" x="200.09996"/>
       <use xlink:href="#Avenir-Book-20" x="255.699951"/>
       <use xlink:href="#Avenir-Book-31" x="283.499939"/>
       <use xlink:href="#Avenir-Book-35" x="339.09993"/>
      </g>
     </g>
    </g>
    <g id="xtick_7">
     <g id="line2d_13">
      <path d="M 317.97669 276.48 
L 317.97669 41.472 
" clip-path="url(#pf90733bc2c)" style="fill: none; stroke: #ffffff; stroke-width: 0.8; stroke-linecap: square"/>
     </g>
     <g id="line2d_14">
      <g>
       <use xlink:href="#m033f84d591" x="317.97669" y="276.48" style="fill: #555555; stroke: #555555; stroke-width: 0.8"/>
      </g>
     </g>
     <g id="text_7">
      <!-- 10-23 18 -->
      <g style="fill: #555555" transform="translate(282.358613 309.759423) rotate(-30) scale(0.1 -0.1)">
       <defs>
        <path id="Avenir-Book-38" d="M 2752 1274 
Q 2752 1472 2681 1641 
Q 2611 1811 2486 1936 
Q 2362 2061 2179 2131 
Q 1997 2202 1779 2202 
Q 1555 2202 1376 2131 
Q 1197 2061 1072 1936 
Q 947 1811 876 1641 
Q 806 1472 806 1274 
Q 806 1075 876 905 
Q 947 736 1072 611 
Q 1197 486 1376 416 
Q 1555 346 1779 346 
Q 1997 346 2179 416 
Q 2362 486 2486 611 
Q 2611 736 2681 905 
Q 2752 1075 2752 1274 
z
M 2586 3386 
Q 2586 3558 2525 3705 
Q 2464 3853 2355 3958 
Q 2246 4064 2099 4125 
Q 1952 4186 1779 4186 
Q 1606 4186 1459 4125 
Q 1312 4064 1203 3958 
Q 1094 3853 1033 3705 
Q 973 3558 973 3386 
Q 973 3213 1033 3065 
Q 1094 2918 1203 2812 
Q 1312 2707 1459 2646 
Q 1606 2586 1779 2586 
Q 1952 2586 2099 2646 
Q 2246 2707 2355 2812 
Q 2464 2918 2525 3065 
Q 2586 3213 2586 3386 
z
M 1190 2413 
Q 1043 2464 918 2563 
Q 794 2662 704 2796 
Q 614 2931 563 3091 
Q 512 3251 512 3424 
Q 512 3693 614 3913 
Q 717 4134 889 4288 
Q 1062 4442 1292 4525 
Q 1523 4608 1779 4608 
Q 2035 4608 2265 4525 
Q 2496 4442 2669 4288 
Q 2842 4134 2944 3913 
Q 3046 3693 3046 3424 
Q 3046 3251 2995 3091 
Q 2944 2931 2854 2796 
Q 2765 2662 2640 2563 
Q 2515 2464 2368 2413 
L 2368 2400 
Q 2752 2298 2982 1978 
Q 3213 1658 3213 1210 
Q 3213 915 3094 678 
Q 2976 442 2781 272 
Q 2586 102 2326 12 
Q 2067 -77 1779 -77 
Q 1491 -77 1232 12 
Q 973 102 777 272 
Q 582 442 464 678 
Q 346 915 346 1210 
Q 346 1658 576 1978 
Q 806 2298 1190 2400 
L 1190 2413 
z
" transform="scale(0.015625)"/>
       </defs>
       <use xlink:href="#Avenir-Book-31"/>
       <use xlink:href="#Avenir-Book-30" x="55.599991"/>
       <use xlink:href="#Avenir-Book-2d" x="111.199982"/>
       <use xlink:href="#Avenir-Book-32" x="144.499969"/>
       <use xlink:href="#Avenir-Book-33" x="200.09996"/>
       <use xlink:href="#Avenir-Book-20" x="255.699951"/>
       <use xlink:href="#Avenir-Book-31" x="283.499939"/>
       <use xlink:href="#Avenir-Book-38" x="339.09993"/>
      </g>
     </g>
    </g>
    <g id="xtick_8">
     <g id="line2d_15">
      <path d="M 358.745365 276.48 
L 358.745365 41.472 
" clip-path="url(#pf90733bc2c)" style="fill: none; stroke: #ffffff; stroke-width: 0.8; stroke-linecap: square"/>
     </g>
     <g id="line2d_16">
      <g>
       <use xlink:href="#m033f84d591" x="358.745365" y="276.48" style="fill: #555555; stroke: #555555; stroke-width: 0.8"/>
      </g>
     </g>
     <g id="text_8">
      <!-- 10-23 21 -->
      <g style="fill: #555555" transform="translate(323.127287 309.759423) rotate(-30) scale(0.1 -0.1)">
       <use xlink:href="#Avenir-Book-31"/>
       <use xlink:href="#Avenir-Book-30" x="55.599991"/>
       <use xlink:href="#Avenir-Book-2d" x="111.199982"/>
       <use xlink:href="#Avenir-Book-32" x="144.499969"/>
       <use xlink:href="#Avenir-Book-33" x="200.09996"/>
       <use xlink:href="#Avenir-Book-20" x="255.699951"/>
       <use xlink:href="#Avenir-Book-32" x="283.499939"/>
       <use xlink:href="#Avenir-Book-31" x="339.09993"/>
      </g>
     </g>
    </g>
    <g id="xtick_9">
     <g id="line2d_17">
      <path d="M 399.514039 276.48 
L 399.514039 41.472 
" clip-path="url(#pf90733bc2c)" style="fill: none; stroke: #ffffff; stroke-width: 0.8; stroke-linecap: square"/>
     </g>
     <g id="line2d_18">
      <g>
       <use xlink:href="#m033f84d591" x="399.514039" y="276.48" style="fill: #555555; stroke: #555555; stroke-width: 0.8"/>
      </g>
     </g>
     <g id="text_9">
      <!-- 10-24 00 -->
      <g style="fill: #555555" transform="translate(363.895962 309.759423) rotate(-30) scale(0.1 -0.1)">
       <defs>
        <path id="Avenir-Book-34" d="M 2202 4070 
L 2189 4070 
L 627 1498 
L 2202 1498 
L 2202 4070 
z
M 2662 1498 
L 3315 1498 
L 3315 1075 
L 2662 1075 
L 2662 0 
L 2202 0 
L 2202 1075 
L 243 1075 
L 243 1600 
L 2074 4531 
L 2662 4531 
L 2662 1498 
z
" transform="scale(0.015625)"/>
       </defs>
       <use xlink:href="#Avenir-Book-31"/>
       <use xlink:href="#Avenir-Book-30" x="55.599991"/>
       <use xlink:href="#Avenir-Book-2d" x="111.199982"/>
       <use xlink:href="#Avenir-Book-32" x="144.499969"/>
       <use xlink:href="#Avenir-Book-34" x="200.09996"/>
       <use xlink:href="#Avenir-Book-20" x="255.699951"/>
       <use xlink:href="#Avenir-Book-30" x="283.499939"/>
       <use xlink:href="#Avenir-Book-30" x="339.09993"/>
      </g>
     </g>
    </g>
    <g id="text_10">
     <!-- Time -->
     <g style="fill: #555555" transform="translate(222.872813 325.324556) scale(0.12 -0.12)">
      <defs>
       <path id="Avenir-Book-54" d="M 2067 0 
L 1606 0 
L 1606 4109 
L 90 4109 
L 90 4531 
L 3584 4531 
L 3584 4109 
L 2067 4109 
L 2067 0 
z
" transform="scale(0.015625)"/>
       <path id="Avenir-Book-69" d="M 1075 4147 
Q 1075 4013 979 3926 
Q 883 3840 768 3840 
Q 653 3840 557 3926 
Q 461 4013 461 4147 
Q 461 4282 557 4368 
Q 653 4454 768 4454 
Q 883 4454 979 4368 
Q 1075 4282 1075 4147 
z
M 979 0 
L 557 0 
L 557 2995 
L 979 2995 
L 979 0 
z
" transform="scale(0.015625)"/>
       <path id="Avenir-Book-6d" d="M 461 2330 
Q 461 2496 451 2662 
Q 442 2829 429 2995 
L 883 2995 
L 883 2541 
L 896 2541 
Q 1050 2803 1322 2937 
Q 1594 3072 1862 3072 
Q 1984 3072 2121 3046 
Q 2259 3021 2387 2953 
Q 2515 2886 2627 2764 
Q 2739 2643 2816 2451 
Q 2944 2739 3222 2905 
Q 3501 3072 3802 3072 
Q 4378 3072 4653 2768 
Q 4928 2464 4928 1901 
L 4928 0 
L 4506 0 
L 4506 1747 
Q 4506 2202 4346 2445 
Q 4186 2688 3750 2688 
Q 3514 2688 3354 2595 
Q 3194 2502 3094 2348 
Q 2995 2195 2950 2000 
Q 2906 1805 2906 1594 
L 2906 0 
L 2483 0 
L 2483 1747 
Q 2483 2202 2323 2445 
Q 2163 2688 1728 2688 
Q 1690 2688 1552 2662 
Q 1414 2637 1267 2521 
Q 1120 2406 1001 2176 
Q 883 1946 883 1536 
L 883 0 
L 461 0 
L 461 2330 
z
" transform="scale(0.015625)"/>
       <path id="Avenir-Book-65" d="M 2790 1728 
Q 2790 2157 2534 2422 
Q 2278 2688 1818 2688 
Q 1613 2688 1421 2608 
Q 1229 2528 1085 2393 
Q 941 2259 854 2086 
Q 768 1914 768 1728 
L 2790 1728 
z
M 755 1382 
Q 774 1158 864 960 
Q 954 762 1101 618 
Q 1248 474 1440 390 
Q 1632 307 1856 307 
Q 2195 307 2441 464 
Q 2688 621 2816 826 
L 3142 557 
Q 2874 218 2550 70 
Q 2227 -77 1856 -77 
Q 1523 -77 1238 41 
Q 954 160 749 371 
Q 544 582 425 870 
Q 307 1158 307 1498 
Q 307 1837 422 2125 
Q 538 2413 742 2624 
Q 947 2835 1222 2953 
Q 1498 3072 1818 3072 
Q 2157 3072 2425 2950 
Q 2694 2829 2876 2627 
Q 3059 2426 3155 2154 
Q 3251 1882 3251 1574 
L 3251 1382 
L 755 1382 
z
" transform="scale(0.015625)"/>
      </defs>
      <use xlink:href="#Avenir-Book-54"/>
      <use xlink:href="#Avenir-Book-69" x="56.649994"/>
      <use xlink:href="#Avenir-Book-6d" x="80.649979"/>
      <use xlink:href="#Avenir-Book-65" x="165.84996"/>
     </g>
    </g>
   </g>
   <g id="matplotlib.axis_2">
    <g id="ytick_1">
     <g id="line2d_19">
      <path d="M 57.6 271.420019 
L 414.72 271.420019 
" clip-path="url(#pf90733bc2c)" style="fill: none; stroke: #ffffff; stroke-width: 0.8; stroke-linecap: square"/>
     </g>
     <g id="line2d_20">
      <defs>
       <path id="m2205a5661c" d="M 0 0 
L -3.5 0 
" style="stroke: #555555; stroke-width: 0.8"/>
      </defs>
      <g>
       <use xlink:href="#m2205a5661c" x="57.6" y="271.420019" style="fill: #555555; stroke: #555555; stroke-width: 0.8"/>
      </g>
     </g>
     <g id="text_11">
      <!-- 40 -->
      <g style="fill: #555555" transform="translate(39.48125 275.199707) scale(0.1 -0.1)">
       <use xlink:href="#Avenir-Book-34"/>
       <use xlink:href="#Avenir-Book-30" x="55.599991"/>
      </g>
     </g>
    </g>
    <g id="ytick_2">
     <g id="line2d_21">
      <path d="M 57.6 243.309014 
L 414.72 243.309014 
" clip-path="url(#pf90733bc2c)" style="fill: none; stroke: #ffffff; stroke-width: 0.8; stroke-linecap: square"/>
     </g>
     <g id="line2d_22">
      <g>
       <use xlink:href="#m2205a5661c" x="57.6" y="243.309014" style="fill: #555555; stroke: #555555; stroke-width: 0.8"/>
      </g>
     </g>
     <g id="text_12">
      <!-- 50 -->
      <g style="fill: #555555" transform="translate(39.48125 247.088702) scale(0.1 -0.1)">
       <use xlink:href="#Avenir-Book-35"/>
       <use xlink:href="#Avenir-Book-30" x="55.599991"/>
      </g>
     </g>
    </g>
    <g id="ytick_3">
     <g id="line2d_23">
      <path d="M 57.6 215.19801 
L 414.72 215.19801 
" clip-path="url(#pf90733bc2c)" style="fill: none; stroke: #ffffff; stroke-width: 0.8; stroke-linecap: square"/>
     </g>
     <g id="line2d_24">
      <g>
       <use xlink:href="#m2205a5661c" x="57.6" y="215.19801" style="fill: #555555; stroke: #555555; stroke-width: 0.8"/>
      </g>
     </g>
     <g id="text_13">
      <!-- 60 -->
      <g style="fill: #555555" transform="translate(39.48125 218.977697) scale(0.1 -0.1)">
       <use xlink:href="#Avenir-Book-36"/>
       <use xlink:href="#Avenir-Book-30" x="55.599991"/>
      </g>
     </g>
    </g>
    <g id="ytick_4">
     <g id="line2d_25">
      <path d="M 57.6 187.087005 
L 414.72 187.087005 
" clip-path="url(#pf90733bc2c)" style="fill: none; stroke: #ffffff; stroke-width: 0.8; stroke-linecap: square"/>
     </g>
     <g id="line2d_26">
      <g>
       <use xlink:href="#m2205a5661c" x="57.6" y="187.087005" style="fill: #555555; stroke: #555555; stroke-width: 0.8"/>
      </g>
     </g>
     <g id="text_14">
      <!-- 70 -->
      <g style="fill: #555555" transform="translate(39.48125 190.866692) scale(0.1 -0.1)">
       <defs>
        <path id="Avenir-Book-37" d="M 3034 4109 
L 1210 0 
L 691 0 
L 2554 4109 
L 346 4109 
L 346 4531 
L 3034 4531 
L 3034 4109 
z
" transform="scale(0.015625)"/>
       </defs>
       <use xlink:href="#Avenir-Book-37"/>
       <use xlink:href="#Avenir-Book-30" x="55.599991"/>
      </g>
     </g>
    </g>
    <g id="ytick_5">
     <g id="line2d_27">
      <path d="M 57.6 158.976 
L 414.72 158.976 
" clip-path="url(#pf90733bc2c)" style="fill: none; stroke: #ffffff; stroke-width: 0.8; stroke-linecap: square"/>
     </g>
     <g id="line2d_28">
      <g>
       <use xlink:href="#m2205a5661c" x="57.6" y="158.976" style="fill: #555555; stroke: #555555; stroke-width: 0.8"/>
      </g>
     </g>
     <g id="text_15">
      <!-- 80 -->
      <g style="fill: #555555" transform="translate(39.48125 162.755687) scale(0.1 -0.1)">
       <use xlink:href="#Avenir-Book-38"/>
       <use xlink:href="#Avenir-Book-30" x="55.599991"/>
      </g>
     </g>
    </g>
    <g id="ytick_6">
     <g id="line2d_29">
      <path d="M 57.6 130.864995 
L 414.72 130.864995 
" clip-path="url(#pf90733bc2c)" style="fill: none; stroke: #ffffff; stroke-width: 0.8; stroke-linecap: square"/>
     </g>
     <g id="line2d_30">
      <g>
       <use xlink:href="#m2205a5661c" x="57.6" y="130.864995" style="fill: #555555; stroke: #555555; stroke-width: 0.8"/>
      </g>
     </g>
     <g id="text_16">
      <!-- 90 -->
      <g style="fill: #555555" transform="translate(39.48125 134.644683) scale(0.1 -0.1)">
       <use xlink:href="#Avenir-Book-39"/>
       <use xlink:href="#Avenir-Book-30" x="55.599991"/>
      </g>
     </g>
    </g>
    <g id="ytick_7">
     <g id="line2d_31">
      <path d="M 57.6 102.75399 
L 414.72 102.75399 
" clip-path="url(#pf90733bc2c)" style="fill: none; stroke: #ffffff; stroke-width: 0.8; stroke-linecap: square"/>
     </g>
     <g id="line2d_32">
      <g>
       <use xlink:href="#m2205a5661c" x="57.6" y="102.75399" style="fill: #555555; stroke: #555555; stroke-width: 0.8"/>
      </g>
     </g>
     <g id="text_17">
      <!-- 100 -->
      <g style="fill: #555555" transform="translate(33.921875 106.533678) scale(0.1 -0.1)">
       <use xlink:href="#Avenir-Book-31"/>
       <use xlink:href="#Avenir-Book-30" x="55.599991"/>
       <use xlink:href="#Avenir-Book-30" x="111.199982"/>
      </g>
     </g>
    </g>
    <g id="ytick_8">
     <g id="line2d_33">
      <path d="M 57.6 74.642986 
L 414.72 74.642986 
" clip-path="url(#pf90733bc2c)" style="fill: none; stroke: #ffffff; stroke-width: 0.8; stroke-linecap: square"/>
     </g>
     <g id="line2d_34">
      <g>
       <use xlink:href="#m2205a5661c" x="57.6" y="74.642986" style="fill: #555555; stroke: #555555; stroke-width: 0.8"/>
      </g>
     </g>
     <g id="text_18">
      <!-- 110 -->
      <g style="fill: #555555" transform="translate(33.921875 78.422673) scale(0.1 -0.1)">
       <use xlink:href="#Avenir-Book-31"/>
       <use xlink:href="#Avenir-Book-31" x="55.599991"/>
       <use xlink:href="#Avenir-Book-30" x="111.199982"/>
      </g>
     </g>
    </g>
    <g id="ytick_9">
     <g id="line2d_35">
      <path d="M 57.6 46.531981 
L 414.72 46.531981 
" clip-path="url(#pf90733bc2c)" style="fill: none; stroke: #ffffff; stroke-width: 0.8; stroke-linecap: square"/>
     </g>
     <g id="line2d_36">
      <g>
       <use xlink:href="#m2205a5661c" x="57.6" y="46.531981" style="fill: #555555; stroke: #555555; stroke-width: 0.8"/>
      </g>
     </g>
     <g id="text_19">
      <!-- 120 -->
      <g style="fill: #555555" transform="translate(33.921875 50.311668) scale(0.1 -0.1)">
       <use xlink:href="#Avenir-Book-31"/>
       <use xlink:href="#Avenir-Book-32" x="55.599991"/>
       <use xlink:href="#Avenir-Book-30" x="111.199982"/>
      </g>
     </g>
    </g>
    <g id="text_20">
     <!-- Heart Rate (BPM) -->
     <g style="fill: #555555" transform="translate(26.46625 204.762562) rotate(-90) scale(0.12 -0.12)">
      <defs>
       <path id="Avenir-Book-48" d="M 614 4531 
L 1075 4531 
L 1075 2566 
L 3546 2566 
L 3546 4531 
L 4006 4531 
L 4006 0 
L 3546 0 
L 3546 2144 
L 1075 2144 
L 1075 0 
L 614 0 
L 614 4531 
z
" transform="scale(0.015625)"/>
       <path id="Avenir-Book-61" d="M 2163 1491 
Q 2003 1491 1763 1475 
Q 1523 1459 1302 1398 
Q 1082 1338 925 1210 
Q 768 1082 768 858 
Q 768 710 829 604 
Q 890 499 992 432 
Q 1094 365 1219 336 
Q 1344 307 1472 307 
Q 1702 307 1872 384 
Q 2042 461 2157 592 
Q 2272 723 2326 899 
Q 2381 1075 2381 1274 
L 2381 1491 
L 2163 1491 
z
M 2381 1837 
L 2381 1914 
Q 2381 2688 1613 2688 
Q 1088 2688 698 2336 
L 442 2637 
Q 864 3072 1709 3072 
Q 1926 3072 2128 3008 
Q 2330 2944 2477 2813 
Q 2624 2682 2713 2483 
Q 2803 2285 2803 2010 
L 2803 672 
Q 2803 499 2819 310 
Q 2835 122 2854 0 
L 2445 0 
Q 2426 109 2416 237 
Q 2406 365 2406 486 
L 2394 486 
Q 2208 186 1955 54 
Q 1702 -77 1338 -77 
Q 1139 -77 953 -22 
Q 768 32 624 144 
Q 480 256 393 419 
Q 307 582 307 800 
Q 307 1165 496 1373 
Q 685 1581 969 1683 
Q 1254 1786 1577 1811 
Q 1901 1837 2170 1837 
L 2381 1837 
z
" transform="scale(0.015625)"/>
       <path id="Avenir-Book-72" d="M 506 2061 
Q 506 2259 496 2464 
Q 486 2669 480 2995 
L 896 2995 
L 896 2438 
L 909 2438 
Q 954 2560 1037 2672 
Q 1120 2784 1238 2873 
Q 1357 2963 1513 3017 
Q 1670 3072 1869 3072 
Q 2048 3072 2182 3034 
L 2099 2618 
Q 2016 2650 1856 2650 
Q 1613 2650 1440 2557 
Q 1267 2464 1152 2320 
Q 1037 2176 982 2009 
Q 928 1843 928 1690 
L 928 0 
L 506 0 
L 506 2061 
z
" transform="scale(0.015625)"/>
       <path id="Avenir-Book-74" d="M 2010 2611 
L 1146 2611 
L 1146 845 
Q 1146 678 1178 572 
Q 1210 467 1267 409 
Q 1325 352 1405 329 
Q 1485 307 1581 307 
Q 1690 307 1805 339 
Q 1920 371 2016 422 
L 2035 32 
Q 1798 -77 1466 -77 
Q 1344 -77 1213 -45 
Q 1082 -13 973 76 
Q 864 166 793 320 
Q 723 474 723 723 
L 723 2611 
L 90 2611 
L 90 2995 
L 723 2995 
L 723 3840 
L 1146 3840 
L 1146 2995 
L 2010 2995 
L 2010 2611 
z
" transform="scale(0.015625)"/>
       <path id="Avenir-Book-52" d="M 1075 2528 
L 1894 2528 
Q 2202 2528 2416 2592 
Q 2630 2656 2758 2761 
Q 2886 2867 2944 3011 
Q 3002 3155 3002 3322 
Q 3002 3482 2944 3626 
Q 2886 3770 2758 3878 
Q 2630 3987 2416 4048 
Q 2202 4109 1894 4109 
L 1075 4109 
L 1075 2528 
z
M 1075 0 
L 614 0 
L 614 4531 
L 2010 4531 
Q 2701 4531 3101 4230 
Q 3501 3930 3501 3322 
Q 3501 2848 3203 2525 
Q 2906 2202 2342 2150 
L 3648 0 
L 3085 0 
L 1843 2106 
L 1075 2106 
L 1075 0 
z
" transform="scale(0.015625)"/>
       <path id="Avenir-Book-28" d="M 1613 4493 
Q 1408 4166 1251 3859 
Q 1094 3552 985 3235 
Q 877 2918 822 2579 
Q 768 2240 768 1843 
Q 768 1446 822 1113 
Q 877 781 979 473 
Q 1082 166 1235 -134 
Q 1389 -435 1587 -768 
L 1248 -1024 
Q 819 -422 582 320 
Q 346 1062 346 1843 
Q 346 2586 579 3334 
Q 813 4083 1274 4710 
L 1613 4493 
z
" transform="scale(0.015625)"/>
       <path id="Avenir-Book-42" d="M 1075 422 
L 1958 422 
Q 2208 422 2425 473 
Q 2643 525 2803 630 
Q 2963 736 3056 896 
Q 3149 1056 3149 1280 
Q 3149 1728 2861 1945 
Q 2573 2163 2016 2163 
L 1075 2163 
L 1075 422 
z
M 1075 2547 
L 2003 2547 
Q 2170 2547 2333 2588 
Q 2496 2630 2627 2726 
Q 2758 2822 2841 2972 
Q 2925 3123 2925 3341 
Q 2925 3411 2896 3539 
Q 2867 3667 2768 3795 
Q 2669 3923 2477 4016 
Q 2285 4109 1958 4109 
L 1075 4109 
L 1075 2547 
z
M 614 4531 
L 1965 4531 
Q 2246 4531 2508 4473 
Q 2771 4416 2976 4281 
Q 3181 4147 3302 3929 
Q 3424 3712 3424 3392 
Q 3424 3021 3216 2755 
Q 3008 2490 2624 2400 
L 2624 2387 
Q 3104 2349 3376 2051 
Q 3648 1754 3648 1254 
Q 3648 1146 3593 934 
Q 3539 723 3366 515 
Q 3194 307 2867 153 
Q 2541 0 1997 0 
L 614 0 
L 614 4531 
z
" transform="scale(0.015625)"/>
       <path id="Avenir-Book-50" d="M 1075 2528 
L 1818 2528 
Q 2125 2528 2339 2592 
Q 2554 2656 2682 2761 
Q 2810 2867 2867 3011 
Q 2925 3155 2925 3322 
Q 2925 3482 2867 3626 
Q 2810 3770 2682 3878 
Q 2554 3987 2339 4048 
Q 2125 4109 1818 4109 
L 1075 4109 
L 1075 2528 
z
M 614 4531 
L 1933 4531 
Q 2624 4531 3024 4230 
Q 3424 3930 3424 3322 
Q 3424 2714 3024 2410 
Q 2624 2106 1933 2106 
L 1075 2106 
L 1075 0 
L 614 0 
L 614 4531 
z
" transform="scale(0.015625)"/>
       <path id="Avenir-Book-4d" d="M 2848 845 
L 4378 4531 
L 5082 4531 
L 5082 0 
L 4621 0 
L 4621 3917 
L 4608 3917 
L 2970 0 
L 2726 0 
L 1088 3917 
L 1075 3917 
L 1075 0 
L 614 0 
L 614 4531 
L 1318 4531 
L 2848 845 
z
" transform="scale(0.015625)"/>
       <path id="Avenir-Book-29" d="M 51 -806 
Q 256 -480 413 -173 
Q 570 134 678 451 
Q 787 768 841 1107 
Q 896 1446 896 1843 
Q 896 2240 841 2573 
Q 787 2906 684 3213 
Q 582 3520 428 3821 
Q 275 4122 77 4454 
L 416 4710 
Q 845 4109 1081 3366 
Q 1318 2624 1318 1843 
Q 1318 1101 1084 352 
Q 851 -397 390 -1024 
L 51 -806 
z
" transform="scale(0.015625)"/>
      </defs>
      <use xlink:href="#Avenir-Book-48"/>
      <use xlink:href="#Avenir-Book-65" x="72.199982"/>
      <use xlink:href="#Avenir-Book-61" x="127.799973"/>
      <use xlink:href="#Avenir-Book-72" x="179.699966"/>
      <use xlink:href="#Avenir-Book-74" x="212.899963"/>
      <use xlink:href="#Avenir-Book-20" x="246.09996"/>
      <use xlink:href="#Avenir-Book-52" x="273.899948"/>
      <use xlink:href="#Avenir-Book-61" x="333.199936"/>
      <use xlink:href="#Avenir-Book-74" x="385.09993"/>
      <use xlink:href="#Avenir-Book-65" x="418.299927"/>
      <use xlink:href="#Avenir-Book-20" x="473.899918"/>
      <use xlink:href="#Avenir-Book-28" x="501.699905"/>
      <use xlink:href="#Avenir-Book-42" x="527.69989"/>
      <use xlink:href="#Avenir-Book-50" x="590.699875"/>
      <use xlink:href="#Avenir-Book-4d" x="648.099869"/>
      <use xlink:href="#Avenir-Book-29" x="737.099854"/>
     </g>
    </g>
   </g>
   <g id="line2d_37">
    <path d="M 73.832727 102.75399 
L 75.002939 105.565091 
L 76.199575 113.998392 
L 77.490583 119.620593 
L 78.351255 165.797416 
L 79.13643 178.653703 
L 80.21982 175.842603 
L 80.933271 175.842603 
L 82.254478 178.653703 
L 82.888658 175.842603 
L 83.998472 173.031502 
L 86.116178 164.598201 
L 85.342328 173.031502 
L 87.229767 164.598201 
L 88.120638 158.976 
L 88.943561 167.409301 
L 90.532784 158.976 
L 91.457629 167.409301 
L 92.861884 164.598201 
L 93.779179 158.976 
L 95.300454 173.031502 
L 94.82482 158.976 
L 95.779864 161.7871 
L 97.289815 147.731598 
L 98.603472 150.542699 
L 99.554741 178.653703 
L 100.555084 181.464804 
L 101.411981 178.653703 
L 103.144649 175.842603 
L 103.990222 184.275904 
L 106.51939 184.275904 
L 107.157344 186.180144 
L 107.013899 178.653703 
L 107.968943 198.331407 
L 108.625771 192.709206 
L 109.935654 195.520306 
L 110.82275 192.709206 
L 111.166264 189.898105 
L 112.498795 189.898105 
L 113.786028 198.331407 
L 114.763722 187.087005 
L 115.477173 189.898105 
L 115.801813 189.898105 
L 117.375937 184.275904 
L 118.02899 181.464804 
L 119.063307 175.842603 
L 120.365639 113.998392 
L 121.818967 175.842603 
L 122.589042 178.653703 
L 124.699199 144.920498 
L 125.382451 147.731598 
L 125.971332 195.520306 
L 127.670027 195.520306 
L 128.609971 192.709206 
L 129.157329 185.776751 
L 130.323766 181.464804 
L 131.086291 181.464804 
L 132.467896 189.898105 
L 132.713263 181.464804 
L 133.928774 181.464804 
L 135.155609 189.898105 
L 135.774689 192.709206 
L 137.175168 181.464804 
L 139.821357 181.464804 
L 141.210512 161.7871 
L 141.746544 181.464804 
L 143.611334 206.764708 
L 144.479556 206.764708 
L 145.325128 203.953608 
L 147.299389 206.764708 
L 148.847089 206.764708 
L 150.281542 203.953608 
L 151.685796 203.953608 
L 152.372824 206.764708 
L 153.87145 203.953608 
L 154.80007 206.764708 
L 155.332328 206.764708 
L 156.33267 203.758517 
L 156.434592 203.953608 
L 157.57838 195.520306 
L 158.907136 192.709206 
L 159.835756 203.953608 
L 161.096565 195.520306 
L 161.545776 206.764708 
L 162.081808 206.764708 
L 163.659707 192.709206 
L 165.362177 195.520306 
L 166.052979 220.820211 
L 166.80418 215.19801 
L 168.068764 212.386909 
L 169.608914 206.764708 
L 170.798 206.764708 
L 171.179263 203.953608 
L 172.349474 206.764708 
L 173.459288 206.764708 
L 175.55057 201.142507 
L 175.554345 206.764708 
L 182.394423 206.764708 
L 181.367656 203.953608 
L 182.534093 206.764708 
L 183.56086 203.95164 
L 183.643907 201.142507 
L 185.633268 203.953608 
L 187.403685 203.953608 
L 189.189202 206.764708 
L 188.128462 206.764708 
L 190.525509 206.764708 
L 191.537176 195.520306 
L 192.767786 212.386909 
L 194.232438 218.00911 
L 195.470598 215.19801 
L 197.720425 215.19801 
L 198.562222 218.00911 
L 199.71356 212.386909 
L 200.717677 215.19801 
L 204.300036 215.19801 
L 205.432499 212.386909 
L 207.225566 215.19801 
L 207.470933 212.386909 
L 208.916711 218.00911 
L 209.834006 209.575809 
L 210.755076 211.126693 
L 211.279784 206.764708 
L 212.231053 209.575809 
L 213.431464 232.064612 
L 214.258162 240.497914 
L 215.526521 234.875713 
L 217.304488 234.875713 
L 216.541963 232.064612 
L 217.655552 218.00911 
L 219.24855 234.875713 
L 219.882729 229.253512 
L 221.807917 195.520306 
L 222.438321 133.676096 
L 223.804827 206.764708 
L 225.435574 254.553416 
L 225.760213 260.175617 
L 226.63976 257.364517 
L 228.206334 265.797818 
L 229.308598 265.797818 
L 230.599606 206.764708 
L 232.196379 262.986718 
L 232.479495 265.797818 
L 234.483954 192.709206 
L 235.129459 192.709206 
L 236.775305 57.776383 
L 236.824378 52.154182 
L 236.873452 57.776383 
L 237.232065 206.764708 
L 237.371736 187.087005 
L 237.39061 192.709206 
L 237.424584 195.520306 
L 237.439683 192.709206 
L 236.031654 192.709206 
L 237.673726 243.309014 
L 238.843938 189.898105 
L 240.236867 173.031502 
L 241.516551 175.842603 
L 243.573859 158.976 
L 244.642149 158.976 
L 244.902616 156.1649 
L 246.287996 139.141999 
L 246.371043 150.542699 
L 247.605428 150.542699 
L 248.798289 181.464804 
L 250.304465 189.898105 
L 251.08964 192.709206 
L 251.576599 192.709206 
L 252.690188 189.898105 
L 253.939672 192.709206 
L 254.955114 187.087005 
L 256.098902 187.087005 
L 257.412559 189.898105 
L 259.001782 187.087005 
L 259.620862 181.464804 
L 260.613655 181.464804 
L 261.742343 173.031502 
L 264.00727 178.653703 
L 265.052911 185.05486 
L 265.804111 178.653703 
L 267.117769 203.953608 
L 267.412209 181.464804 
L 268.593746 192.709206 
L 269.880979 218.00911 
L 271.541925 181.464804 
L 271.953386 223.631311 
L 273.750228 198.331407 
L 273.791752 206.764708 
L 274.886466 229.253512 
L 275.577269 206.764708 
L 277.007947 220.820211 
L 278.068688 203.953608 
L 279.027506 195.520306 
L 280.548782 195.520306 
L 280.261891 192.709206 
L 281.82469 195.520306 
L 284.108491 195.520306 
L 284.727571 192.709206 
L 285.905333 195.520306 
L 287.347336 187.087005 
L 286.648984 192.709206 
L 287.785222 192.709206 
L 288.917685 195.520306 
L 290.050148 187.087005 
L 291.507251 195.520306 
L 292.239577 197.670517 
L 293.247469 192.709206 
L 294.221387 184.275904 
L 296.467439 184.275904 
L 296.852477 181.464804 
L 299.50999 181.464804 
L 300.246092 175.842603 
L 301.83909 181.464804 
L 301.967436 184.275904 
L 302.711086 178.653703 
L 304.489054 181.464804 
L 304.794819 178.653703 
L 306.334969 178.653703 
L 307.482531 184.275904 
L 308.214857 178.653703 
L 309.464342 181.464804 
L 309.985275 195.520306 
L 310.570381 189.898105 
L 312.582391 198.331407 
L 313.288293 229.253512 
L 313.862074 203.953608 
L 315.311627 203.953608 
L 316.262896 209.575809 
L 316.527137 218.00911 
L 317.36516 232.064612 
L 319.2073 226.442411 
L 319.422468 221.533949 
L 320.188768 218.00911 
L 321.226859 212.386909 
L 321.81574 232.064612 
L 323.846624 192.709206 
L 324.084442 119.620593 
L 325.82466 136.487196 
L 326.470164 158.976 
L 328.44065 139.298297 
L 329.52404 133.676096 
L 330.373387 173.031502 
L 331.332206 130.864995 
L 332.068307 175.842603 
L 333.336666 130.864995 
L 335.137282 248.931215 
L 336.198023 189.898105 
L 337.37201 130.864995 
L 337.855194 170.220402 
L 338.534672 130.864995 
L 339.055605 181.464804 
L 340.323964 175.842603 
L 342.045308 173.031502 
L 342.966378 170.220402 
L 343.340091 167.409301 
L 345.03501 133.676096 
L 346.514762 119.620593 
L 347.541529 125.242794 
L 348.828762 128.053895 
L 349.274198 142.109397 
L 350.236791 128.053895 
L 351.301307 125.242794 
L 353.143447 113.998392 
L 354.396706 125.242794 
L 355.623541 170.220402 
L 356.846601 181.464804 
L 357.182566 181.464804 
L 358.466024 128.053895 
L 359.258748 192.709206 
L 359.145502 187.087005 
L 361.233009 122.431694 
L 361.482151 122.431694 
L 363.641381 195.520306 
L 364.26801 178.653703 
L 365.664715 192.709206 
L 366.895325 195.520306 
L 367.431357 192.709206 
L 368.533622 195.520306 
L 370.26629 189.898105 
L 370.809873 181.464804 
L 371.602597 181.464804 
L 372.852081 175.842603 
L 372.999301 178.653703 
L 373.878848 178.205333 
L 374.528127 184.275904 
L 376.725105 184.275904 
L 377.683924 187.087005 
L 379.061754 184.275904 
L 380.71515 192.709206 
L 379.778981 187.087005 
L 381.621121 181.464804 
L 382.511992 181.464804 
L 382.953653 178.653703 
L 384.055917 178.653703 
L 385.648915 184.275904 
L 387.513704 175.842603 
L 386.838001 178.653703 
L 392.700386 178.653703 
L 394.312258 175.842603 
L 393.436487 178.653703 
L 394.889815 178.653703 
L 395.391873 175.842603 
L 396.758379 215.19801 
L 398.487273 220.820211 
L 398.487273 220.820211 
" clip-path="url(#pf90733bc2c)" style="fill: none; stroke: #e24a33; stroke-width: 1.5; stroke-linecap: square"/>
   </g>
   <g id="patch_3">
    <path d="M 57.6 276.48 
L 57.6 41.472 
" style="fill: none; stroke: #ffffff; stroke-linejoin: miter; stroke-linecap: square"/>
   </g>
   <g id="patch_4">
    <path d="M 414.72 276.48 
L 414.72 41.472 
" style="fill: none; stroke: #ffffff; stroke-linejoin: miter; stroke-linecap: square"/>
   </g>
   <g id="patch_5">
    <path d="M 57.6 276.48 
L 414.72 276.48 
" style="fill: none; stroke: #ffffff; stroke-linejoin: miter; stroke-linecap: square"/>
   </g>
   <g id="patch_6">
    <path d="M 57.6 41.472 
L 414.72 41.472 
" style="fill: none; stroke: #ffffff; stroke-linejoin: miter; stroke-linecap: square"/>
   </g>
   <g id="legend_1">
    <g id="patch_7">
     <path d="M 352.190313 64.911062 
L 407.72 64.911062 
Q 409.72 64.911062 409.72 62.911062 
L 409.72 48.472 
Q 409.72 46.472 407.72 46.472 
L 352.190313 46.472 
Q 350.190313 46.472 350.190313 48.472 
L 350.190313 62.911062 
Q 350.190313 64.911062 352.190313 64.911062 
z
" style="fill: #e5e5e5; opacity: 0.8; stroke: #cccccc; stroke-width: 0.5; stroke-linejoin: miter"/>
    </g>
    <g id="line2d_38">
     <path d="M 354.190313 54.531375 
L 364.190313 54.531375 
L 374.190313 54.531375 
" style="fill: none; stroke: #e24a33; stroke-width: 1.5; stroke-linecap: square"/>
    </g>
    <g id="text_21">
     <!-- value -->
     <g transform="translate(382.190313 58.031375) scale(0.1 -0.1)">
      <defs>
       <path id="Avenir-Book-76" d="M 1779 0 
L 1306 0 
L 90 2995 
L 595 2995 
L 1549 474 
L 1562 474 
L 2515 2995 
L 2995 2995 
L 1779 0 
z
" transform="scale(0.015625)"/>
       <path id="Avenir-Book-6c" d="M 979 0 
L 557 0 
L 557 4838 
L 979 4838 
L 979 0 
z
" transform="scale(0.015625)"/>
       <path id="Avenir-Book-75" d="M 2624 0 
Q 2611 122 2608 240 
Q 2605 358 2605 480 
L 2592 480 
Q 2522 358 2413 256 
Q 2304 154 2169 80 
Q 2035 6 1884 -35 
Q 1734 -77 1587 -77 
Q 1011 -77 736 227 
Q 461 531 461 1094 
L 461 2995 
L 883 2995 
L 883 1338 
Q 883 1088 921 896 
Q 960 704 1053 573 
Q 1146 442 1302 374 
Q 1459 307 1696 307 
Q 1728 307 1875 332 
Q 2022 358 2185 473 
Q 2349 589 2477 819 
Q 2605 1050 2605 1459 
L 2605 2995 
L 3027 2995 
L 3027 659 
Q 3027 538 3036 352 
Q 3046 166 3059 0 
L 2624 0 
z
" transform="scale(0.015625)"/>
      </defs>
      <use xlink:href="#Avenir-Book-76"/>
      <use xlink:href="#Avenir-Book-61" x="48.199997"/>
      <use xlink:href="#Avenir-Book-6c" x="100.099991"/>
      <use xlink:href="#Avenir-Book-75" x="124.099976"/>
      <use xlink:href="#Avenir-Book-65" x="179.699966"/>
     </g>
    </g>
   </g>
  </g>
 </g>
 <defs>
  <clipPath id="pf90733bc2c">
   <rect x="57.6" y="41.472" width="357.12" height="235.008"/>
  </clipPath>
 </defs>
</svg>
