<?xml version="1.0" encoding="utf-8" standalone="no"?>
<!DOCTYPE svg PUBLIC "-//W3C//DTD SVG 1.1//EN"
  "http://www.w3.org/Graphics/SVG/1.1/DTD/svg11.dtd">
<svg xmlns:xlink="http://www.w3.org/1999/xlink" width="460.8pt" height="345.6pt" viewBox="0 0 460.8 345.6" xmlns="http://www.w3.org/2000/svg" version="1.1">
 <metadata>
  <rdf:RDF xmlns:dc="http://purl.org/dc/elements/1.1/" xmlns:cc="http://creativecommons.org/ns#" xmlns:rdf="http://www.w3.org/1999/02/22-rdf-syntax-ns#">
   <cc:Work>
    <dc:type rdf:resource="http://purl.org/dc/dcmitype/StillImage"/>
    <dc:date>2024-10-24T11:29:45.754905</dc:date>
    <dc:format>image/svg+xml</dc:format>
    <dc:creator>
     <cc:Agent>
      <dc:title>Matplotlib v3.9.2, https://matplotlib.org/</dc:title>
     </cc:Agent>
    </dc:creator>
   </cc:Work>
  </rdf:RDF>
 </metadata>
 <defs>
  <style type="text/css">*{stroke-linejoin: round; stroke-linecap: butt}</style>
 </defs>
 <g id="figure_1">
  <g id="patch_1">
   <path d="M 0 345.6 
L 460.8 345.6 
L 460.8 0 
L 0 0 
z
" style="fill: #ffffff"/>
  </g>
  <g id="axes_1">
   <g id="patch_2">
    <path d="M 57.6 276.48 
L 414.72 276.48 
L 414.72 41.472 
L 57.6 41.472 
z
" style="fill: #e5e5e5"/>
   </g>
   <g id="matplotlib.axis_1">
    <g id="xtick_1">
     <g id="line2d_1">
      <path d="M 72.033402 276.48 
L 72.033402 41.472 
" clip-path="url(#p2e3a90d436)" style="fill: none; stroke: #ffffff; stroke-width: 0.8; stroke-linecap: square"/>
     </g>
     <g id="line2d_2">
      <defs>
       <path id="m0c52ebec7a" d="M 0 0 
L 0 3.5 
" style="stroke: #555555; stroke-width: 0.8"/>
      </defs>
      <g>
       <use xlink:href="#m0c52ebec7a" x="72.033402" y="276.48" style="fill: #555555; stroke: #555555; stroke-width: 0.8"/>
      </g>
     </g>
     <g id="text_1">
      <!-- 10-23 00 -->
      <g style="fill: #555555" transform="translate(36.415325 309.759423) rotate(-30) scale(0.1 -0.1)">
       <defs>
        <path id="Avenir-Book-31" d="M 2227 0 
L 1766 0 
L 1766 3955 
L 954 3238 
L 666 3584 
L 1818 4531 
L 2227 4531 
L 2227 0 
z
" transform="scale(0.015625)"/>
        <path id="Avenir-Book-30" d="M 1779 4186 
Q 1408 4186 1193 3987 
Q 979 3789 870 3494 
Q 762 3200 733 2867 
Q 704 2534 704 2266 
Q 704 1997 733 1664 
Q 762 1331 870 1036 
Q 979 742 1193 544 
Q 1408 346 1779 346 
Q 2150 346 2364 544 
Q 2579 742 2688 1036 
Q 2797 1331 2825 1664 
Q 2854 1997 2854 2266 
Q 2854 2534 2825 2867 
Q 2797 3200 2688 3494 
Q 2579 3789 2364 3987 
Q 2150 4186 1779 4186 
z
M 1779 4608 
Q 2266 4608 2566 4384 
Q 2867 4160 3033 3814 
Q 3200 3469 3257 3056 
Q 3315 2643 3315 2266 
Q 3315 1888 3257 1475 
Q 3200 1062 3033 716 
Q 2867 371 2566 147 
Q 2266 -77 1779 -77 
Q 1293 -77 992 147 
Q 691 371 524 716 
Q 358 1062 300 1475 
Q 243 1888 243 2266 
Q 243 2643 300 3056 
Q 358 3469 524 3814 
Q 691 4160 992 4384 
Q 1293 4608 1779 4608 
z
" transform="scale(0.015625)"/>
        <path id="Avenir-Book-2d" d="M 1888 1325 
L 243 1325 
L 243 1747 
L 1888 1747 
L 1888 1325 
z
" transform="scale(0.015625)"/>
        <path id="Avenir-Book-32" d="M 3187 0 
L 307 0 
L 307 531 
L 2112 2368 
Q 2214 2470 2316 2585 
Q 2419 2701 2502 2829 
Q 2586 2957 2637 3097 
Q 2688 3238 2688 3392 
Q 2688 3578 2621 3725 
Q 2554 3872 2432 3974 
Q 2310 4077 2150 4131 
Q 1990 4186 1811 4186 
Q 1466 4186 1222 3994 
Q 979 3802 909 3475 
L 422 3526 
Q 518 4032 886 4320 
Q 1254 4608 1779 4608 
Q 2054 4608 2300 4534 
Q 2547 4461 2736 4313 
Q 2925 4166 3037 3945 
Q 3149 3725 3149 3430 
Q 3149 3168 3069 2950 
Q 2989 2733 2861 2541 
Q 2733 2349 2569 2176 
Q 2406 2003 2234 1837 
L 806 422 
L 3187 422 
L 3187 0 
z
" transform="scale(0.015625)"/>
        <path id="Avenir-Book-33" d="M 1306 2586 
L 1542 2586 
Q 1741 2586 1923 2630 
Q 2106 2675 2240 2774 
Q 2374 2874 2454 3034 
Q 2534 3194 2534 3418 
Q 2534 3782 2313 3984 
Q 2093 4186 1696 4186 
Q 1408 4186 1190 4058 
Q 973 3930 832 3686 
L 429 3891 
Q 634 4256 950 4432 
Q 1267 4608 1683 4608 
Q 1952 4608 2189 4531 
Q 2426 4454 2605 4304 
Q 2784 4154 2889 3933 
Q 2995 3712 2995 3430 
Q 2995 3245 2934 3078 
Q 2874 2912 2768 2777 
Q 2662 2643 2521 2544 
Q 2381 2445 2227 2394 
L 2246 2381 
Q 2438 2342 2598 2236 
Q 2758 2131 2873 1977 
Q 2989 1824 3053 1632 
Q 3117 1440 3117 1229 
Q 3117 915 3001 672 
Q 2886 429 2688 262 
Q 2490 96 2227 9 
Q 1965 -77 1670 -77 
Q 1171 -77 800 140 
Q 429 358 243 838 
L 730 986 
Q 845 659 1072 502 
Q 1299 346 1709 346 
Q 1901 346 2073 410 
Q 2246 474 2377 592 
Q 2509 710 2582 876 
Q 2656 1043 2656 1242 
Q 2656 1498 2560 1674 
Q 2464 1850 2304 1958 
Q 2144 2067 1936 2115 
Q 1728 2163 1504 2163 
L 1306 2163 
L 1306 2586 
z
" transform="scale(0.015625)"/>
        <path id="Avenir-Book-20" transform="scale(0.015625)"/>
       </defs>
       <use xlink:href="#Avenir-Book-31"/>
       <use xlink:href="#Avenir-Book-30" x="55.599991"/>
       <use xlink:href="#Avenir-Book-2d" x="111.199982"/>
       <use xlink:href="#Avenir-Book-32" x="144.499969"/>
       <use xlink:href="#Avenir-Book-33" x="200.09996"/>
       <use xlink:href="#Avenir-Book-20" x="255.699951"/>
       <use xlink:href="#Avenir-Book-30" x="283.499939"/>
       <use xlink:href="#Avenir-Book-30" x="339.09993"/>
      </g>
     </g>
    </g>
    <g id="xtick_2">
     <g id="line2d_3">
      <path d="M 113.117358 276.48 
L 113.117358 41.472 
" clip-path="url(#p2e3a90d436)" style="fill: none; stroke: #ffffff; stroke-width: 0.8; stroke-linecap: square"/>
     </g>
     <g id="line2d_4">
      <g>
       <use xlink:href="#m0c52ebec7a" x="113.117358" y="276.48" style="fill: #555555; stroke: #555555; stroke-width: 0.8"/>
      </g>
     </g>
     <g id="text_2">
      <!-- 10-23 03 -->
      <g style="fill: #555555" transform="translate(77.49928 309.759423) rotate(-30) scale(0.1 -0.1)">
       <use xlink:href="#Avenir-Book-31"/>
       <use xlink:href="#Avenir-Book-30" x="55.599991"/>
       <use xlink:href="#Avenir-Book-2d" x="111.199982"/>
       <use xlink:href="#Avenir-Book-32" x="144.499969"/>
       <use xlink:href="#Avenir-Book-33" x="200.09996"/>
       <use xlink:href="#Avenir-Book-20" x="255.699951"/>
       <use xlink:href="#Avenir-Book-30" x="283.499939"/>
       <use xlink:href="#Avenir-Book-33" x="339.09993"/>
      </g>
     </g>
    </g>
    <g id="xtick_3">
     <g id="line2d_5">
      <path d="M 154.201313 276.48 
L 154.201313 41.472 
" clip-path="url(#p2e3a90d436)" style="fill: none; stroke: #ffffff; stroke-width: 0.8; stroke-linecap: square"/>
     </g>
     <g id="line2d_6">
      <g>
       <use xlink:href="#m0c52ebec7a" x="154.201313" y="276.48" style="fill: #555555; stroke: #555555; stroke-width: 0.8"/>
      </g>
     </g>
     <g id="text_3">
      <!-- 10-23 06 -->
      <g style="fill: #555555" transform="translate(118.583235 309.759423) rotate(-30) scale(0.1 -0.1)">
       <defs>
        <path id="Avenir-Book-36" d="M 768 1325 
Q 768 1107 841 928 
Q 915 749 1049 617 
Q 1184 486 1369 416 
Q 1555 346 1779 346 
Q 2003 346 2188 416 
Q 2374 486 2508 617 
Q 2643 749 2716 928 
Q 2790 1107 2790 1325 
Q 2790 1542 2716 1721 
Q 2643 1901 2508 2029 
Q 2374 2157 2188 2230 
Q 2003 2304 1779 2304 
Q 1555 2304 1369 2230 
Q 1184 2157 1049 2029 
Q 915 1901 841 1721 
Q 768 1542 768 1325 
z
M 1229 2586 
L 1242 2573 
Q 1350 2650 1532 2688 
Q 1715 2726 1869 2726 
Q 2163 2726 2416 2620 
Q 2669 2515 2854 2329 
Q 3040 2144 3145 1888 
Q 3251 1632 3251 1325 
Q 3251 1011 3142 755 
Q 3034 499 2835 313 
Q 2637 128 2368 25 
Q 2099 -77 1779 -77 
Q 1459 -77 1190 25 
Q 922 128 723 313 
Q 525 499 416 755 
Q 307 1011 307 1325 
Q 307 1702 419 1984 
Q 531 2266 698 2541 
L 1920 4531 
L 2464 4531 
L 1229 2586 
z
" transform="scale(0.015625)"/>
       </defs>
       <use xlink:href="#Avenir-Book-31"/>
       <use xlink:href="#Avenir-Book-30" x="55.599991"/>
       <use xlink:href="#Avenir-Book-2d" x="111.199982"/>
       <use xlink:href="#Avenir-Book-32" x="144.499969"/>
       <use xlink:href="#Avenir-Book-33" x="200.09996"/>
       <use xlink:href="#Avenir-Book-20" x="255.699951"/>
       <use xlink:href="#Avenir-Book-30" x="283.499939"/>
       <use xlink:href="#Avenir-Book-36" x="339.09993"/>
      </g>
     </g>
    </g>
    <g id="xtick_4">
     <g id="line2d_7">
      <path d="M 195.285268 276.48 
L 195.285268 41.472 
" clip-path="url(#p2e3a90d436)" style="fill: none; stroke: #ffffff; stroke-width: 0.8; stroke-linecap: square"/>
     </g>
     <g id="line2d_8">
      <g>
       <use xlink:href="#m0c52ebec7a" x="195.285268" y="276.48" style="fill: #555555; stroke: #555555; stroke-width: 0.8"/>
      </g>
     </g>
     <g id="text_4">
      <!-- 10-23 09 -->
      <g style="fill: #555555" transform="translate(159.667191 309.759423) rotate(-30) scale(0.1 -0.1)">
       <defs>
        <path id="Avenir-Book-39" d="M 2790 3206 
Q 2790 3424 2716 3603 
Q 2643 3782 2508 3910 
Q 2374 4038 2188 4112 
Q 2003 4186 1779 4186 
Q 1555 4186 1369 4112 
Q 1184 4038 1049 3910 
Q 915 3782 841 3603 
Q 768 3424 768 3206 
Q 768 2989 841 2809 
Q 915 2630 1049 2499 
Q 1184 2368 1369 2297 
Q 1555 2227 1779 2227 
Q 2003 2227 2188 2297 
Q 2374 2368 2508 2499 
Q 2643 2630 2716 2809 
Q 2790 2989 2790 3206 
z
M 2330 1946 
L 2317 1958 
Q 2208 1882 2025 1843 
Q 1843 1805 1690 1805 
Q 1395 1805 1142 1910 
Q 890 2016 704 2201 
Q 518 2387 412 2643 
Q 307 2899 307 3206 
Q 307 3520 416 3776 
Q 525 4032 723 4217 
Q 922 4403 1190 4505 
Q 1459 4608 1779 4608 
Q 2099 4608 2368 4505 
Q 2637 4403 2835 4217 
Q 3034 4032 3142 3776 
Q 3251 3520 3251 3206 
Q 3251 2829 3139 2547 
Q 3027 2266 2861 1990 
L 1638 0 
L 1094 0 
L 2330 1946 
z
" transform="scale(0.015625)"/>
       </defs>
       <use xlink:href="#Avenir-Book-31"/>
       <use xlink:href="#Avenir-Book-30" x="55.599991"/>
       <use xlink:href="#Avenir-Book-2d" x="111.199982"/>
       <use xlink:href="#Avenir-Book-32" x="144.499969"/>
       <use xlink:href="#Avenir-Book-33" x="200.09996"/>
       <use xlink:href="#Avenir-Book-20" x="255.699951"/>
       <use xlink:href="#Avenir-Book-30" x="283.499939"/>
       <use xlink:href="#Avenir-Book-39" x="339.09993"/>
      </g>
     </g>
    </g>
    <g id="xtick_5">
     <g id="line2d_9">
      <path d="M 236.369224 276.48 
L 236.369224 41.472 
" clip-path="url(#p2e3a90d436)" style="fill: none; stroke: #ffffff; stroke-width: 0.8; stroke-linecap: square"/>
     </g>
     <g id="line2d_10">
      <g>
       <use xlink:href="#m0c52ebec7a" x="236.369224" y="276.48" style="fill: #555555; stroke: #555555; stroke-width: 0.8"/>
      </g>
     </g>
     <g id="text_5">
      <!-- 10-23 12 -->
      <g style="fill: #555555" transform="translate(200.751146 309.759423) rotate(-30) scale(0.1 -0.1)">
       <use xlink:href="#Avenir-Book-31"/>
       <use xlink:href="#Avenir-Book-30" x="55.599991"/>
       <use xlink:href="#Avenir-Book-2d" x="111.199982"/>
       <use xlink:href="#Avenir-Book-32" x="144.499969"/>
       <use xlink:href="#Avenir-Book-33" x="200.09996"/>
       <use xlink:href="#Avenir-Book-20" x="255.699951"/>
       <use xlink:href="#Avenir-Book-31" x="283.499939"/>
       <use xlink:href="#Avenir-Book-32" x="339.09993"/>
      </g>
     </g>
    </g>
    <g id="xtick_6">
     <g id="line2d_11">
      <path d="M 277.453179 276.48 
L 277.453179 41.472 
" clip-path="url(#p2e3a90d436)" style="fill: none; stroke: #ffffff; stroke-width: 0.8; stroke-linecap: square"/>
     </g>
     <g id="line2d_12">
      <g>
       <use xlink:href="#m0c52ebec7a" x="277.453179" y="276.48" style="fill: #555555; stroke: #555555; stroke-width: 0.8"/>
      </g>
     </g>
     <g id="text_6">
      <!-- 10-23 15 -->
      <g style="fill: #555555" transform="translate(241.835102 309.759423) rotate(-30) scale(0.1 -0.1)">
       <defs>
        <path id="Avenir-Book-35" d="M 2976 4109 
L 1120 4109 
L 1094 2746 
Q 1242 2803 1395 2828 
Q 1549 2854 1702 2854 
Q 2022 2854 2284 2745 
Q 2547 2637 2736 2441 
Q 2925 2246 3030 1980 
Q 3136 1715 3136 1402 
Q 3136 1075 3021 803 
Q 2906 531 2701 336 
Q 2496 141 2217 32 
Q 1939 -77 1613 -77 
Q 1184 -77 838 128 
Q 493 333 307 730 
L 762 928 
Q 890 659 1120 502 
Q 1350 346 1651 346 
Q 1869 346 2054 426 
Q 2240 506 2377 640 
Q 2515 774 2595 960 
Q 2675 1146 2675 1357 
Q 2675 1594 2592 1792 
Q 2509 1990 2361 2134 
Q 2214 2278 2009 2355 
Q 1805 2432 1562 2432 
Q 1318 2432 1078 2365 
Q 838 2298 621 2182 
L 666 4531 
L 2976 4531 
L 2976 4109 
z
" transform="scale(0.015625)"/>
       </defs>
       <use xlink:href="#Avenir-Book-31"/>
       <use xlink:href="#Avenir-Book-30" x="55.599991"/>
       <use xlink:href="#Avenir-Book-2d" x="111.199982"/>
       <use xlink:href="#Avenir-Book-32" x="144.499969"/>
       <use xlink:href="#Avenir-Book-33" x="200.09996"/>
       <use xlink:href="#Avenir-Book-20" x="255.699951"/>
       <use xlink:href="#Avenir-Book-31" x="283.499939"/>
       <use xlink:href="#Avenir-Book-35" x="339.09993"/>
      </g>
     </g>
    </g>
    <g id="xtick_7">
     <g id="line2d_13">
      <path d="M 318.537135 276.48 
L 318.537135 41.472 
" clip-path="url(#p2e3a90d436)" style="fill: none; stroke: #ffffff; stroke-width: 0.8; stroke-linecap: square"/>
     </g>
     <g id="line2d_14">
      <g>
       <use xlink:href="#m0c52ebec7a" x="318.537135" y="276.48" style="fill: #555555; stroke: #555555; stroke-width: 0.8"/>
      </g>
     </g>
     <g id="text_7">
      <!-- 10-23 18 -->
      <g style="fill: #555555" transform="translate(282.919057 309.759423) rotate(-30) scale(0.1 -0.1)">
       <defs>
        <path id="Avenir-Book-38" d="M 2752 1274 
Q 2752 1472 2681 1641 
Q 2611 1811 2486 1936 
Q 2362 2061 2179 2131 
Q 1997 2202 1779 2202 
Q 1555 2202 1376 2131 
Q 1197 2061 1072 1936 
Q 947 1811 876 1641 
Q 806 1472 806 1274 
Q 806 1075 876 905 
Q 947 736 1072 611 
Q 1197 486 1376 416 
Q 1555 346 1779 346 
Q 1997 346 2179 416 
Q 2362 486 2486 611 
Q 2611 736 2681 905 
Q 2752 1075 2752 1274 
z
M 2586 3386 
Q 2586 3558 2525 3705 
Q 2464 3853 2355 3958 
Q 2246 4064 2099 4125 
Q 1952 4186 1779 4186 
Q 1606 4186 1459 4125 
Q 1312 4064 1203 3958 
Q 1094 3853 1033 3705 
Q 973 3558 973 3386 
Q 973 3213 1033 3065 
Q 1094 2918 1203 2812 
Q 1312 2707 1459 2646 
Q 1606 2586 1779 2586 
Q 1952 2586 2099 2646 
Q 2246 2707 2355 2812 
Q 2464 2918 2525 3065 
Q 2586 3213 2586 3386 
z
M 1190 2413 
Q 1043 2464 918 2563 
Q 794 2662 704 2796 
Q 614 2931 563 3091 
Q 512 3251 512 3424 
Q 512 3693 614 3913 
Q 717 4134 889 4288 
Q 1062 4442 1292 4525 
Q 1523 4608 1779 4608 
Q 2035 4608 2265 4525 
Q 2496 4442 2669 4288 
Q 2842 4134 2944 3913 
Q 3046 3693 3046 3424 
Q 3046 3251 2995 3091 
Q 2944 2931 2854 2796 
Q 2765 2662 2640 2563 
Q 2515 2464 2368 2413 
L 2368 2400 
Q 2752 2298 2982 1978 
Q 3213 1658 3213 1210 
Q 3213 915 3094 678 
Q 2976 442 2781 272 
Q 2586 102 2326 12 
Q 2067 -77 1779 -77 
Q 1491 -77 1232 12 
Q 973 102 777 272 
Q 582 442 464 678 
Q 346 915 346 1210 
Q 346 1658 576 1978 
Q 806 2298 1190 2400 
L 1190 2413 
z
" transform="scale(0.015625)"/>
       </defs>
       <use xlink:href="#Avenir-Book-31"/>
       <use xlink:href="#Avenir-Book-30" x="55.599991"/>
       <use xlink:href="#Avenir-Book-2d" x="111.199982"/>
       <use xlink:href="#Avenir-Book-32" x="144.499969"/>
       <use xlink:href="#Avenir-Book-33" x="200.09996"/>
       <use xlink:href="#Avenir-Book-20" x="255.699951"/>
       <use xlink:href="#Avenir-Book-31" x="283.499939"/>
       <use xlink:href="#Avenir-Book-38" x="339.09993"/>
      </g>
     </g>
    </g>
    <g id="xtick_8">
     <g id="line2d_15">
      <path d="M 359.62109 276.48 
L 359.62109 41.472 
" clip-path="url(#p2e3a90d436)" style="fill: none; stroke: #ffffff; stroke-width: 0.8; stroke-linecap: square"/>
     </g>
     <g id="line2d_16">
      <g>
       <use xlink:href="#m0c52ebec7a" x="359.62109" y="276.48" style="fill: #555555; stroke: #555555; stroke-width: 0.8"/>
      </g>
     </g>
     <g id="text_8">
      <!-- 10-23 21 -->
      <g style="fill: #555555" transform="translate(324.003013 309.759423) rotate(-30) scale(0.1 -0.1)">
       <use xlink:href="#Avenir-Book-31"/>
       <use xlink:href="#Avenir-Book-30" x="55.599991"/>
       <use xlink:href="#Avenir-Book-2d" x="111.199982"/>
       <use xlink:href="#Avenir-Book-32" x="144.499969"/>
       <use xlink:href="#Avenir-Book-33" x="200.09996"/>
       <use xlink:href="#Avenir-Book-20" x="255.699951"/>
       <use xlink:href="#Avenir-Book-32" x="283.499939"/>
       <use xlink:href="#Avenir-Book-31" x="339.09993"/>
      </g>
     </g>
    </g>
    <g id="xtick_9">
     <g id="line2d_17">
      <path d="M 400.705046 276.48 
L 400.705046 41.472 
" clip-path="url(#p2e3a90d436)" style="fill: none; stroke: #ffffff; stroke-width: 0.8; stroke-linecap: square"/>
     </g>
     <g id="line2d_18">
      <g>
       <use xlink:href="#m0c52ebec7a" x="400.705046" y="276.48" style="fill: #555555; stroke: #555555; stroke-width: 0.8"/>
      </g>
     </g>
     <g id="text_9">
      <!-- 10-24 00 -->
      <g style="fill: #555555" transform="translate(365.086968 309.759423) rotate(-30) scale(0.1 -0.1)">
       <defs>
        <path id="Avenir-Book-34" d="M 2202 4070 
L 2189 4070 
L 627 1498 
L 2202 1498 
L 2202 4070 
z
M 2662 1498 
L 3315 1498 
L 3315 1075 
L 2662 1075 
L 2662 0 
L 2202 0 
L 2202 1075 
L 243 1075 
L 243 1600 
L 2074 4531 
L 2662 4531 
L 2662 1498 
z
" transform="scale(0.015625)"/>
       </defs>
       <use xlink:href="#Avenir-Book-31"/>
       <use xlink:href="#Avenir-Book-30" x="55.599991"/>
       <use xlink:href="#Avenir-Book-2d" x="111.199982"/>
       <use xlink:href="#Avenir-Book-32" x="144.499969"/>
       <use xlink:href="#Avenir-Book-34" x="200.09996"/>
       <use xlink:href="#Avenir-Book-20" x="255.699951"/>
       <use xlink:href="#Avenir-Book-30" x="283.499939"/>
       <use xlink:href="#Avenir-Book-30" x="339.09993"/>
      </g>
     </g>
    </g>
    <g id="text_10">
     <!-- Time -->
     <g style="fill: #555555" transform="translate(222.872813 325.324556) scale(0.12 -0.12)">
      <defs>
       <path id="Avenir-Book-54" d="M 2067 0 
L 1606 0 
L 1606 4109 
L 90 4109 
L 90 4531 
L 3584 4531 
L 3584 4109 
L 2067 4109 
L 2067 0 
z
" transform="scale(0.015625)"/>
       <path id="Avenir-Book-69" d="M 1075 4147 
Q 1075 4013 979 3926 
Q 883 3840 768 3840 
Q 653 3840 557 3926 
Q 461 4013 461 4147 
Q 461 4282 557 4368 
Q 653 4454 768 4454 
Q 883 4454 979 4368 
Q 1075 4282 1075 4147 
z
M 979 0 
L 557 0 
L 557 2995 
L 979 2995 
L 979 0 
z
" transform="scale(0.015625)"/>
       <path id="Avenir-Book-6d" d="M 461 2330 
Q 461 2496 451 2662 
Q 442 2829 429 2995 
L 883 2995 
L 883 2541 
L 896 2541 
Q 1050 2803 1322 2937 
Q 1594 3072 1862 3072 
Q 1984 3072 2121 3046 
Q 2259 3021 2387 2953 
Q 2515 2886 2627 2764 
Q 2739 2643 2816 2451 
Q 2944 2739 3222 2905 
Q 3501 3072 3802 3072 
Q 4378 3072 4653 2768 
Q 4928 2464 4928 1901 
L 4928 0 
L 4506 0 
L 4506 1747 
Q 4506 2202 4346 2445 
Q 4186 2688 3750 2688 
Q 3514 2688 3354 2595 
Q 3194 2502 3094 2348 
Q 2995 2195 2950 2000 
Q 2906 1805 2906 1594 
L 2906 0 
L 2483 0 
L 2483 1747 
Q 2483 2202 2323 2445 
Q 2163 2688 1728 2688 
Q 1690 2688 1552 2662 
Q 1414 2637 1267 2521 
Q 1120 2406 1001 2176 
Q 883 1946 883 1536 
L 883 0 
L 461 0 
L 461 2330 
z
" transform="scale(0.015625)"/>
       <path id="Avenir-Book-65" d="M 2790 1728 
Q 2790 2157 2534 2422 
Q 2278 2688 1818 2688 
Q 1613 2688 1421 2608 
Q 1229 2528 1085 2393 
Q 941 2259 854 2086 
Q 768 1914 768 1728 
L 2790 1728 
z
M 755 1382 
Q 774 1158 864 960 
Q 954 762 1101 618 
Q 1248 474 1440 390 
Q 1632 307 1856 307 
Q 2195 307 2441 464 
Q 2688 621 2816 826 
L 3142 557 
Q 2874 218 2550 70 
Q 2227 -77 1856 -77 
Q 1523 -77 1238 41 
Q 954 160 749 371 
Q 544 582 425 870 
Q 307 1158 307 1498 
Q 307 1837 422 2125 
Q 538 2413 742 2624 
Q 947 2835 1222 2953 
Q 1498 3072 1818 3072 
Q 2157 3072 2425 2950 
Q 2694 2829 2876 2627 
Q 3059 2426 3155 2154 
Q 3251 1882 3251 1574 
L 3251 1382 
L 755 1382 
z
" transform="scale(0.015625)"/>
      </defs>
      <use xlink:href="#Avenir-Book-54"/>
      <use xlink:href="#Avenir-Book-69" x="56.649994"/>
      <use xlink:href="#Avenir-Book-6d" x="80.649979"/>
      <use xlink:href="#Avenir-Book-65" x="165.84996"/>
     </g>
    </g>
   </g>
   <g id="matplotlib.axis_2">
    <g id="ytick_1">
     <g id="line2d_19">
      <path d="M 57.6 267.380364 
L 414.72 267.380364 
" clip-path="url(#p2e3a90d436)" style="fill: none; stroke: #ffffff; stroke-width: 0.8; stroke-linecap: square"/>
     </g>
     <g id="line2d_20">
      <defs>
       <path id="mcfb82d0335" d="M 0 0 
L -3.5 0 
" style="stroke: #555555; stroke-width: 0.8"/>
      </defs>
      <g>
       <use xlink:href="#mcfb82d0335" x="57.6" y="267.380364" style="fill: #555555; stroke: #555555; stroke-width: 0.8"/>
      </g>
     </g>
     <g id="text_11">
      <!-- 0 -->
      <g style="fill: #555555" transform="translate(45.040625 271.160051) scale(0.1 -0.1)">
       <use xlink:href="#Avenir-Book-30"/>
      </g>
     </g>
    </g>
    <g id="ytick_2">
     <g id="line2d_21">
      <path d="M 57.6 235.729455 
L 414.72 235.729455 
" clip-path="url(#p2e3a90d436)" style="fill: none; stroke: #ffffff; stroke-width: 0.8; stroke-linecap: square"/>
     </g>
     <g id="line2d_22">
      <g>
       <use xlink:href="#mcfb82d0335" x="57.6" y="235.729455" style="fill: #555555; stroke: #555555; stroke-width: 0.8"/>
      </g>
     </g>
     <g id="text_12">
      <!-- 20 -->
      <g style="fill: #555555" transform="translate(39.48125 239.509142) scale(0.1 -0.1)">
       <use xlink:href="#Avenir-Book-32"/>
       <use xlink:href="#Avenir-Book-30" x="55.599991"/>
      </g>
     </g>
    </g>
    <g id="ytick_3">
     <g id="line2d_23">
      <path d="M 57.6 204.078545 
L 414.72 204.078545 
" clip-path="url(#p2e3a90d436)" style="fill: none; stroke: #ffffff; stroke-width: 0.8; stroke-linecap: square"/>
     </g>
     <g id="line2d_24">
      <g>
       <use xlink:href="#mcfb82d0335" x="57.6" y="204.078545" style="fill: #555555; stroke: #555555; stroke-width: 0.8"/>
      </g>
     </g>
     <g id="text_13">
      <!-- 40 -->
      <g style="fill: #555555" transform="translate(39.48125 207.858233) scale(0.1 -0.1)">
       <use xlink:href="#Avenir-Book-34"/>
       <use xlink:href="#Avenir-Book-30" x="55.599991"/>
      </g>
     </g>
    </g>
    <g id="ytick_4">
     <g id="line2d_25">
      <path d="M 57.6 172.427636 
L 414.72 172.427636 
" clip-path="url(#p2e3a90d436)" style="fill: none; stroke: #ffffff; stroke-width: 0.8; stroke-linecap: square"/>
     </g>
     <g id="line2d_26">
      <g>
       <use xlink:href="#mcfb82d0335" x="57.6" y="172.427636" style="fill: #555555; stroke: #555555; stroke-width: 0.8"/>
      </g>
     </g>
     <g id="text_14">
      <!-- 60 -->
      <g style="fill: #555555" transform="translate(39.48125 176.207324) scale(0.1 -0.1)">
       <use xlink:href="#Avenir-Book-36"/>
       <use xlink:href="#Avenir-Book-30" x="55.599991"/>
      </g>
     </g>
    </g>
    <g id="ytick_5">
     <g id="line2d_27">
      <path d="M 57.6 140.776727 
L 414.72 140.776727 
" clip-path="url(#p2e3a90d436)" style="fill: none; stroke: #ffffff; stroke-width: 0.8; stroke-linecap: square"/>
     </g>
     <g id="line2d_28">
      <g>
       <use xlink:href="#mcfb82d0335" x="57.6" y="140.776727" style="fill: #555555; stroke: #555555; stroke-width: 0.8"/>
      </g>
     </g>
     <g id="text_15">
      <!-- 80 -->
      <g style="fill: #555555" transform="translate(39.48125 144.556415) scale(0.1 -0.1)">
       <use xlink:href="#Avenir-Book-38"/>
       <use xlink:href="#Avenir-Book-30" x="55.599991"/>
      </g>
     </g>
    </g>
    <g id="ytick_6">
     <g id="line2d_29">
      <path d="M 57.6 109.125818 
L 414.72 109.125818 
" clip-path="url(#p2e3a90d436)" style="fill: none; stroke: #ffffff; stroke-width: 0.8; stroke-linecap: square"/>
     </g>
     <g id="line2d_30">
      <g>
       <use xlink:href="#mcfb82d0335" x="57.6" y="109.125818" style="fill: #555555; stroke: #555555; stroke-width: 0.8"/>
      </g>
     </g>
     <g id="text_16">
      <!-- 100 -->
      <g style="fill: #555555" transform="translate(33.921875 112.905506) scale(0.1 -0.1)">
       <use xlink:href="#Avenir-Book-31"/>
       <use xlink:href="#Avenir-Book-30" x="55.599991"/>
       <use xlink:href="#Avenir-Book-30" x="111.199982"/>
      </g>
     </g>
    </g>
    <g id="ytick_7">
     <g id="line2d_31">
      <path d="M 57.6 77.474909 
L 414.72 77.474909 
" clip-path="url(#p2e3a90d436)" style="fill: none; stroke: #ffffff; stroke-width: 0.8; stroke-linecap: square"/>
     </g>
     <g id="line2d_32">
      <g>
       <use xlink:href="#mcfb82d0335" x="57.6" y="77.474909" style="fill: #555555; stroke: #555555; stroke-width: 0.8"/>
      </g>
     </g>
     <g id="text_17">
      <!-- 120 -->
      <g style="fill: #555555" transform="translate(33.921875 81.254597) scale(0.1 -0.1)">
       <use xlink:href="#Avenir-Book-31"/>
       <use xlink:href="#Avenir-Book-32" x="55.599991"/>
       <use xlink:href="#Avenir-Book-30" x="111.199982"/>
      </g>
     </g>
    </g>
    <g id="ytick_8">
     <g id="line2d_33">
      <path d="M 57.6 45.824 
L 414.72 45.824 
" clip-path="url(#p2e3a90d436)" style="fill: none; stroke: #ffffff; stroke-width: 0.8; stroke-linecap: square"/>
     </g>
     <g id="line2d_34">
      <g>
       <use xlink:href="#mcfb82d0335" x="57.6" y="45.824" style="fill: #555555; stroke: #555555; stroke-width: 0.8"/>
      </g>
     </g>
     <g id="text_18">
      <!-- 140 -->
      <g style="fill: #555555" transform="translate(33.921875 49.603688) scale(0.1 -0.1)">
       <use xlink:href="#Avenir-Book-31"/>
       <use xlink:href="#Avenir-Book-34" x="55.599991"/>
       <use xlink:href="#Avenir-Book-30" x="111.199982"/>
      </g>
     </g>
    </g>
    <g id="text_19">
     <!-- Steps -->
     <g style="fill: #555555" transform="translate(26.46625 173.860687) rotate(-90) scale(0.12 -0.12)">
      <defs>
       <path id="Avenir-Book-53" d="M 2758 3782 
Q 2458 4224 1882 4224 
Q 1702 4224 1529 4176 
Q 1357 4128 1219 4029 
Q 1082 3930 998 3773 
Q 915 3616 915 3405 
Q 915 3098 1088 2928 
Q 1261 2758 1517 2649 
Q 1773 2541 2077 2454 
Q 2381 2368 2637 2224 
Q 2893 2080 3065 1843 
Q 3238 1606 3238 1197 
Q 3238 890 3107 643 
Q 2976 397 2761 230 
Q 2547 64 2281 -25 
Q 2016 -115 1747 -115 
Q 1331 -115 956 41 
Q 582 198 320 557 
L 736 858 
Q 883 608 1145 457 
Q 1408 307 1766 307 
Q 1939 307 2112 361 
Q 2285 416 2422 521 
Q 2560 627 2649 780 
Q 2739 934 2739 1133 
Q 2739 1370 2640 1526 
Q 2541 1683 2377 1788 
Q 2214 1894 2006 1964 
Q 1798 2035 1577 2105 
Q 1357 2176 1149 2265 
Q 941 2355 777 2492 
Q 614 2630 515 2838 
Q 416 3046 416 3360 
Q 416 3686 541 3929 
Q 666 4173 874 4333 
Q 1082 4493 1344 4569 
Q 1606 4646 1882 4646 
Q 2266 4646 2579 4524 
Q 2893 4403 3162 4096 
L 2758 3782 
z
" transform="scale(0.015625)"/>
       <path id="Avenir-Book-74" d="M 2010 2611 
L 1146 2611 
L 1146 845 
Q 1146 678 1178 572 
Q 1210 467 1267 409 
Q 1325 352 1405 329 
Q 1485 307 1581 307 
Q 1690 307 1805 339 
Q 1920 371 2016 422 
L 2035 32 
Q 1798 -77 1466 -77 
Q 1344 -77 1213 -45 
Q 1082 -13 973 76 
Q 864 166 793 320 
Q 723 474 723 723 
L 723 2611 
L 90 2611 
L 90 2995 
L 723 2995 
L 723 3840 
L 1146 3840 
L 1146 2995 
L 2010 2995 
L 2010 2611 
z
" transform="scale(0.015625)"/>
       <path id="Avenir-Book-70" d="M 3194 1498 
Q 3194 1747 3114 1964 
Q 3034 2182 2886 2342 
Q 2739 2502 2531 2595 
Q 2323 2688 2061 2688 
Q 1798 2688 1580 2595 
Q 1363 2502 1203 2342 
Q 1043 2182 953 1964 
Q 864 1747 864 1498 
Q 864 1248 953 1030 
Q 1043 813 1203 653 
Q 1363 493 1580 400 
Q 1798 307 2061 307 
Q 2323 307 2531 400 
Q 2739 493 2886 653 
Q 3034 813 3114 1030 
Q 3194 1248 3194 1498 
z
M 461 2995 
L 883 2995 
L 883 2496 
L 896 2496 
Q 998 2650 1139 2758 
Q 1280 2867 1433 2937 
Q 1587 3008 1750 3040 
Q 1914 3072 2061 3072 
Q 2413 3072 2704 2953 
Q 2995 2835 3206 2624 
Q 3418 2413 3536 2125 
Q 3654 1837 3654 1498 
Q 3654 1158 3536 870 
Q 3418 582 3206 371 
Q 2995 160 2704 41 
Q 2413 -77 2061 -77 
Q 1914 -77 1750 -45 
Q 1587 -13 1433 57 
Q 1280 128 1139 237 
Q 998 346 896 499 
L 883 499 
L 883 -1843 
L 461 -1843 
L 461 2995 
z
" transform="scale(0.015625)"/>
       <path id="Avenir-Book-73" d="M 2048 2285 
Q 1952 2470 1792 2579 
Q 1632 2688 1402 2688 
Q 1293 2688 1181 2662 
Q 1069 2637 979 2582 
Q 890 2528 835 2445 
Q 781 2362 781 2240 
Q 781 2029 928 1933 
Q 1075 1837 1370 1766 
L 1798 1664 
Q 2112 1594 2320 1379 
Q 2528 1165 2528 845 
Q 2528 602 2429 426 
Q 2330 250 2166 138 
Q 2003 26 1792 -25 
Q 1581 -77 1363 -77 
Q 1018 -77 720 54 
Q 422 186 211 506 
L 576 755 
Q 704 550 899 428 
Q 1094 307 1363 307 
Q 1491 307 1619 336 
Q 1747 365 1846 425 
Q 1946 486 2006 582 
Q 2067 678 2067 806 
Q 2067 1030 1900 1129 
Q 1734 1229 1498 1286 
L 1088 1382 
Q 1011 1402 880 1446 
Q 749 1491 624 1580 
Q 499 1670 409 1814 
Q 320 1958 320 2170 
Q 320 2400 413 2573 
Q 506 2746 662 2854 
Q 819 2963 1017 3017 
Q 1216 3072 1427 3072 
Q 1741 3072 2009 2950 
Q 2278 2829 2426 2534 
L 2048 2285 
z
" transform="scale(0.015625)"/>
      </defs>
      <use xlink:href="#Avenir-Book-53"/>
      <use xlink:href="#Avenir-Book-74" x="55.599991"/>
      <use xlink:href="#Avenir-Book-65" x="88.799988"/>
      <use xlink:href="#Avenir-Book-70" x="144.399979"/>
      <use xlink:href="#Avenir-Book-73" x="205.499969"/>
     </g>
    </g>
   </g>
   <g id="line2d_35">
    <path d="M 73.832727 265.797818 
L 84.62107 245.224727 
L 97.661421 208.826182 
L 101.781229 249.972364 
L 105.596711 194.583273 
L 118.469684 238.894545 
L 123.544313 208.826182 
L 125.33603 262.632727 
L 130.912797 251.554909 
L 139.460542 229.399273 
L 140.753926 265.797818 
L 164.426653 262.632727 
L 167.774235 264.215273 
L 180.9211 248.389818 
L 190.355194 254.72 
L 221.187181 211.991273 
L 221.274674 251.554909 
L 221.921366 253.137455 
L 233.580841 194.583273 
L 236.624097 189.835636 
L 247.872731 155.019636 
L 273.740407 254.72 
L 292.041788 265.797818 
L 304.203399 242.059636 
L 309.076413 251.554909 
L 324.931776 230.981818 
L 335.115271 242.059636 
L 347.607837 194.583273 
L 348.783295 238.894545 
L 359.670543 253.137455 
L 364.227819 52.154182 
L 365.304371 242.059636 
L 398.487273 207.243636 
" clip-path="url(#p2e3a90d436)" style="fill: none; stroke: #e24a33; stroke-width: 1.5; stroke-linecap: square"/>
   </g>
   <g id="patch_3">
    <path d="M 57.6 276.48 
L 57.6 41.472 
" style="fill: none; stroke: #ffffff; stroke-linejoin: miter; stroke-linecap: square"/>
   </g>
   <g id="patch_4">
    <path d="M 414.72 276.48 
L 414.72 41.472 
" style="fill: none; stroke: #ffffff; stroke-linejoin: miter; stroke-linecap: square"/>
   </g>
   <g id="patch_5">
    <path d="M 57.6 276.48 
L 414.72 276.48 
" style="fill: none; stroke: #ffffff; stroke-linejoin: miter; stroke-linecap: square"/>
   </g>
   <g id="patch_6">
    <path d="M 57.6 41.472 
L 414.72 41.472 
" style="fill: none; stroke: #ffffff; stroke-linejoin: miter; stroke-linecap: square"/>
   </g>
   <g id="legend_1">
    <g id="patch_7">
     <path d="M 64.6 64.911062 
L 120.129687 64.911062 
Q 122.129687 64.911062 122.129687 62.911062 
L 122.129687 48.472 
Q 122.129687 46.472 120.129687 46.472 
L 64.6 46.472 
Q 62.6 46.472 62.6 48.472 
L 62.6 62.911062 
Q 62.6 64.911062 64.6 64.911062 
z
" style="fill: #e5e5e5; opacity: 0.8; stroke: #cccccc; stroke-width: 0.5; stroke-linejoin: miter"/>
    </g>
    <g id="line2d_36">
     <path d="M 66.6 54.531375 
L 76.6 54.531375 
L 86.6 54.531375 
" style="fill: none; stroke: #e24a33; stroke-width: 1.5; stroke-linecap: square"/>
    </g>
    <g id="text_20">
     <!-- value -->
     <g transform="translate(94.6 58.031375) scale(0.1 -0.1)">
      <defs>
       <path id="Avenir-Book-76" d="M 1779 0 
L 1306 0 
L 90 2995 
L 595 2995 
L 1549 474 
L 1562 474 
L 2515 2995 
L 2995 2995 
L 1779 0 
z
" transform="scale(0.015625)"/>
       <path id="Avenir-Book-61" d="M 2163 1491 
Q 2003 1491 1763 1475 
Q 1523 1459 1302 1398 
Q 1082 1338 925 1210 
Q 768 1082 768 858 
Q 768 710 829 604 
Q 890 499 992 432 
Q 1094 365 1219 336 
Q 1344 307 1472 307 
Q 1702 307 1872 384 
Q 2042 461 2157 592 
Q 2272 723 2326 899 
Q 2381 1075 2381 1274 
L 2381 1491 
L 2163 1491 
z
M 2381 1837 
L 2381 1914 
Q 2381 2688 1613 2688 
Q 1088 2688 698 2336 
L 442 2637 
Q 864 3072 1709 3072 
Q 1926 3072 2128 3008 
Q 2330 2944 2477 2813 
Q 2624 2682 2713 2483 
Q 2803 2285 2803 2010 
L 2803 672 
Q 2803 499 2819 310 
Q 2835 122 2854 0 
L 2445 0 
Q 2426 109 2416 237 
Q 2406 365 2406 486 
L 2394 486 
Q 2208 186 1955 54 
Q 1702 -77 1338 -77 
Q 1139 -77 953 -22 
Q 768 32 624 144 
Q 480 256 393 419 
Q 307 582 307 800 
Q 307 1165 496 1373 
Q 685 1581 969 1683 
Q 1254 1786 1577 1811 
Q 1901 1837 2170 1837 
L 2381 1837 
z
" transform="scale(0.015625)"/>
       <path id="Avenir-Book-6c" d="M 979 0 
L 557 0 
L 557 4838 
L 979 4838 
L 979 0 
z
" transform="scale(0.015625)"/>
       <path id="Avenir-Book-75" d="M 2624 0 
Q 2611 122 2608 240 
Q 2605 358 2605 480 
L 2592 480 
Q 2522 358 2413 256 
Q 2304 154 2169 80 
Q 2035 6 1884 -35 
Q 1734 -77 1587 -77 
Q 1011 -77 736 227 
Q 461 531 461 1094 
L 461 2995 
L 883 2995 
L 883 1338 
Q 883 1088 921 896 
Q 960 704 1053 573 
Q 1146 442 1302 374 
Q 1459 307 1696 307 
Q 1728 307 1875 332 
Q 2022 358 2185 473 
Q 2349 589 2477 819 
Q 2605 1050 2605 1459 
L 2605 2995 
L 3027 2995 
L 3027 659 
Q 3027 538 3036 352 
Q 3046 166 3059 0 
L 2624 0 
z
" transform="scale(0.015625)"/>
      </defs>
      <use xlink:href="#Avenir-Book-76"/>
      <use xlink:href="#Avenir-Book-61" x="48.199997"/>
      <use xlink:href="#Avenir-Book-6c" x="100.099991"/>
      <use xlink:href="#Avenir-Book-75" x="124.099976"/>
      <use xlink:href="#Avenir-Book-65" x="179.699966"/>
     </g>
    </g>
   </g>
  </g>
 </g>
 <defs>
  <clipPath id="p2e3a90d436">
   <rect x="57.6" y="41.472" width="357.12" height="235.008"/>
  </clipPath>
 </defs>
</svg>
