<?xml version="1.0" encoding="UTF-8" standalone="no"?>
<svg
   version="1.1"
   viewBox="0 0 564.96103 46.750002"
   fill="none"
   stroke="none"
   stroke-linecap="square"
   stroke-miterlimit="10"
   id="svg6"
   sodipodi:docname="Untitled drawing.svg"
   width="5.8850107in"
   height="0.48697919in"
   inkscape:version="1.3.2 (091e20e, 2023-11-25)"
   xmlns:inkscape="http://www.inkscape.org/namespaces/inkscape"
   xmlns:sodipodi="http://sodipodi.sourceforge.net/DTD/sodipodi-0.dtd"
   xmlns="http://www.w3.org/2000/svg"
   xmlns:svg="http://www.w3.org/2000/svg">
  <path
     fill="#000000"
     d="m 231.72952,286.4046 q 0,-5.9375 2.73437,-9.4375 2.75,-3.5 7.28125,-3.5 4.64063,0 7.23438,3.28125 l 0.21875,-2.8125 h 3.95312 v 24.75 q 0,4.92188 -2.92187,7.75 -2.90625,2.84375 -7.82813,2.84375 -2.75,0 -5.375,-1.17187 -2.625,-1.17188 -4,-3.20313 l 2.25,-2.60937 q 2.78125,3.45312 6.8125,3.45312 3.17188,0 4.9375,-1.78125 1.76563,-1.78125 1.76563,-5.03125 v -2.17187 q -2.59375,3 -7.09375,3 -4.45313,0 -7.21875,-3.57813 -2.75,-3.59375 -2.75,-9.78125 z m 4.35937,0.48438 q 0,4.29687 1.75,6.75 1.76563,2.4375 4.9375,2.4375 4.09375,0 6.01563,-3.71875 V 280.7796 q -1.98438,-3.64062 -5.96875,-3.64062 -3.17188,0 -4.95313,2.46875 -1.78125,2.45312 -1.78125,7.28125 z m 28.32032,12.40625 h -4.34375 v -36 h 4.34375 z m 5.78906,-12.92188 q 0,-3.71875 1.45312,-6.6875 1.46875,-2.98437 4.07813,-4.59375 2.625,-1.625 5.96875,-1.625 5.1875,0 8.375,3.59375 3.20312,3.57813 3.20312,9.53125 v 0.29688 q 0,3.70312 -1.42187,6.65625 -1.40625,2.9375 -4.04688,4.57812 -2.64062,1.64063 -6.0625,1.64063 -5.15625,0 -8.35937,-3.57813 -3.1875,-3.59375 -3.1875,-9.5 z m 4.35937,0.51563 q 0,4.21875 1.95313,6.78125 1.95312,2.54687 5.23437,2.54687 3.3125,0 5.25,-2.57812 1.95313,-2.59375 1.95313,-7.26563 0,-4.17187 -1.98438,-6.75 -1.98437,-2.59375 -5.26562,-2.59375 -3.20313,0 -5.17188,2.5625 -1.96875,2.54688 -1.96875,7.29688 z m 36.42188,-9.0625 q -0.98438,-0.17188 -2.14063,-0.17188 -4.26562,0 -5.78125,3.64063 v 18 h -4.34375 v -25.35938 h 4.21875 l 0.0781,2.92188 q 2.125,-3.39063 6.04687,-3.39063 1.26563,0 1.92188,0.32813 z m 8.69531,21.46875 h -4.34375 v -25.35938 h 4.34375 z m -4.6875,-32.09375 q 0,-1.04688 0.64063,-1.76563 0.64062,-0.73437 1.90625,-0.73437 1.26562,0 1.92187,0.73437 0.65625,0.71875 0.65625,1.78125 0,1.04688 -0.65625,1.75 -0.65625,0.70313 -1.92187,0.70313 -1.26563,0 -1.90625,-0.70313 -0.64063,-0.70312 -0.64063,-1.76562 z m 10.47656,19.17187 q 0,-3.71875 1.45313,-6.6875 1.46875,-2.98437 4.07812,-4.59375 2.625,-1.625 5.96875,-1.625 5.1875,0 8.375,3.59375 3.20313,3.57813 3.20313,9.53125 v 0.29688 q 0,3.70312 -1.42188,6.65625 -1.40625,2.9375 -4.04687,4.57812 -2.64063,1.64063 -6.0625,1.64063 -5.15625,0 -8.35938,-3.57813 -3.1875,-3.59375 -3.1875,-9.5 z m 4.35938,0.51563 q 0,4.21875 1.95312,6.78125 1.95313,2.54687 5.23438,2.54687 3.3125,0 5.25,-2.57812 1.95312,-2.59375 1.95312,-7.26563 0,-4.17187 -1.98437,-6.75 -1.98438,-2.59375 -5.26563,-2.59375 -3.20312,0 -5.17187,2.5625 -1.96875,2.54688 -1.96875,7.29688 z m 39.8125,9.89062 q -2.53125,2.98438 -7.42188,2.98438 -4.0625,0 -6.1875,-2.35938 -2.10937,-2.35937 -2.14062,-6.96875 v -16.5 h 4.34375 v 16.375 q 0,5.76563 4.6875,5.76563 4.96875,0 6.60937,-3.70313 v -18.4375 h 4.32813 v 25.35938 h -4.125 z m 25.57031,-4.21875 q 0,-1.75 -1.32812,-2.71875 -1.3125,-0.98437 -4.60938,-1.6875 -3.29687,-0.70312 -5.23437,-1.6875 -1.92188,-0.98437 -2.85938,-2.34375 -0.92187,-1.35937 -0.92187,-3.23437 0,-3.10938 2.64062,-5.26563 2.64063,-2.15625 6.73438,-2.15625 4.3125,0 7,2.23438 2.6875,2.21875 2.6875,5.6875 h -4.35938 q 0,-1.78125 -1.51562,-3.0625 -1.51563,-1.29688 -3.8125,-1.29688 -2.35938,0 -3.70313,1.03125 -1.32812,1.03125 -1.32812,2.6875 0,1.57813 1.23437,2.375 1.25,0.79688 4.48438,1.53125 3.25,0.71875 5.26562,1.73438 2.01563,1 2.98438,2.42187 0.98437,1.40625 0.98437,3.45313 0,3.39062 -2.71875,5.45312 -2.71875,2.04688 -7.0625,2.04688 -3.04687,0 -5.39062,-1.07813 -2.34375,-1.07812 -3.67188,-3.01562 -1.3125,-1.9375 -1.3125,-4.1875 h 4.32813 q 0.125,2.1875 1.75,3.46875 1.625,1.26562 4.29687,1.26562 2.46875,0 3.95313,-0.98437 1.48437,-1 1.48437,-2.67188 z m 14.70313,6.73438 h -4.34375 v -36 h 4.34375 z m 15.22656,-6.35938 5.90625,-19 h 4.64062 l -10.1875,29.28125 q -2.375,6.32813 -7.53125,6.32813 l -0.8125,-0.0781 -1.625,-0.29687 v -3.51563 l 1.17188,0.0937 q 2.20312,0 3.4375,-0.89062 1.23437,-0.89063 2.03125,-3.26563 l 0.95312,-2.57812 -9.04687,-25.07813 h 4.73437 z"
     fill-rule="nonzero"
     id="path4"
     clip-path="url(#clipPath9)"
     transform="translate(-231.72952,-262.79523)" />
  <path
     fill="#000000"
     d="m 452.7686,299.29523 q -0.42188,-0.78125 -0.75,-2.28125 -2.17188,2.75 -6.09375,2.75 -3.57813,0 -6.09375,-2.17188 -2.5,-2.17187 -2.5,-5.45312 0,-4.125 3.04687,-6.23438 3.04688,-2.10937 8.85938,-2.10937 h 2.4375 v -1.32813 q 0,-3.5 -3.03125,-3.5 -2.8125,0 -2.8125,2.76563 h -7.89063 q 0,-3.67188 3.125,-5.96875 3.125,-2.29688 7.96875,-2.29688 4.85938,0 7.67188,2.375 2.8125,2.35938 2.89062,6.48438 v 11.21875 q 0.0469,3.5 1.07813,5.34375 v 0.40625 z m -4.9375,-5.15625 q 1.46875,0 2.4375,-0.625 0.98437,-0.64063 1.40625,-1.4375 v -4.0625 h -2.29688 q -4.125,0 -4.125,3.70312 0,1.07813 0.71875,1.75 0.73438,0.67188 1.85938,0.67188 z m 38.03906,-5.25 2.54688,-14.95313 h 7.57812 l -5.98437,25.35938 h -6.67188 l -4.20312,-15.04688 -4.21875,15.04688 h -6.67188 l -5.98437,-25.35938 h 7.57812 l 2.5,15.29688 4.03125,-15.29688 h 5.51563 z m 23.13281,0.95312 -2.23437,2.23438 v 7.21875 h -7.89063 v -36.03125 h 7.89063 v 19.125 l 0.79687,-1.04688 5.95316,-7.40625 h 9.46875 l -8.875,10.42188 9.46875,14.9375 h -9.04688 z m 37.96878,-0.95312 2.54688,-14.95313 h 7.57812 l -5.98437,25.35938 h -6.67188 l -4.20312,-15.04688 -4.21875,15.04688 h -6.67188 l -5.98437,-25.35938 h 7.57812 l 2.5,15.29688 4.03125,-15.29688 h 5.51563 z m 27.22657,10.40625 q -0.42188,-0.78125 -0.75,-2.28125 -2.17188,2.75 -6.09375,2.75 -3.57813,0 -6.09375,-2.17188 -2.5,-2.17187 -2.5,-5.45312 0,-4.125 3.04687,-6.23438 3.04688,-2.10937 8.85938,-2.10937 h 2.4375 v -1.32813 q 0,-3.5 -3.03125,-3.5 -2.8125,0 -2.8125,2.76563 h -7.89063 q 0,-3.67188 3.125,-5.96875 3.125,-2.29688 7.96875,-2.29688 4.85938,0 7.67188,2.375 2.8125,2.35938 2.89062,6.48438 v 11.21875 q 0.0469,3.5 1.07813,5.34375 v 0.40625 z m -4.9375,-5.15625 q 1.46875,0 2.4375,-0.625 0.98437,-0.64063 1.40625,-1.4375 v -4.0625 h -2.29688 q -4.125,0 -4.125,3.70312 0,1.07813 0.71875,1.75 0.73438,0.67188 1.85938,0.67188 z m 31.47656,-13.0625 -2.60938,-0.1875 q -3.71875,0 -4.78125,2.34375 v 16.0625 h -7.89062 v -25.35938 h 7.40625 l 0.25,3.25 q 2,-3.71875 5.5625,-3.71875 1.26562,0 2.20312,0.28125 z m 1.39844,5.34375 q 0,-6.01563 2.59375,-9.48438 2.60937,-3.46875 7.28125,-3.46875 3.39062,0 5.71875,2.67188 v -12.84375 h 7.92187 v 36 h -7.10937 l -0.39063,-2.71875 q -2.4375,3.1875 -6.1875,3.1875 -4.53125,0 -7.1875,-3.46875 -2.64062,-3.46875 -2.64062,-9.875 z m 7.90625,0.5 q 0,6.75 3.9375,6.75 2.625,0 3.75,-2.20313 v -9.65625 q -1.07813,-2.25 -3.70313,-2.25 -3.65625,0 -3.96875,5.90625 z"
     fill-rule="nonzero"
     id="path5"
     clip-path="url(#clipPath8)"
     transform="translate(-231.72952,-262.79523)" />
  <path
     fill="#000000"
     d="m 635.91705,299.29523 h -4.34375 v -36 h 4.34375 z m 11.64844,0 h -4.34375 v -25.35938 h 4.34375 z m -4.6875,-32.09375 q 0,-1.04688 0.64062,-1.76563 0.64063,-0.73437 1.90625,-0.73437 1.26563,0 1.92188,0.73437 0.65625,0.71875 0.65625,1.78125 0,1.04688 -0.65625,1.75 -0.65625,0.70313 -1.92188,0.70313 -1.26562,0 -1.90625,-0.70313 -0.64062,-0.70312 -0.64062,-1.76562 z m 13.75781,32.09375 V 277.2796 h -4.01562 v -3.34375 h 4.01562 v -2.60937 q 0,-4.07813 2.17188,-6.29688 2.1875,-2.23437 6.17187,-2.23437 1.5,0 2.96875,0.40625 l -0.23437,3.51562 q -1.09375,-0.21875 -2.34375,-0.21875 -2.10938,0 -3.26563,1.23438 -1.14062,1.23437 -1.14062,3.53125 v 2.67187 h 5.42187 v 3.34375 h -5.42187 v 22.01563 z m 24.49219,0.46875 q -5.15625,0 -8.39063,-3.39063 -3.23437,-3.39062 -3.23437,-9.0625 v -0.79687 q 0,-3.76563 1.4375,-6.73438 1.4375,-2.96875 4.03125,-4.64062 2.59375,-1.67188 5.60937,-1.67188 4.95313,0 7.6875,3.26563 2.75,3.25 2.75,9.3125 v 1.8125 h -17.1875 q 0.0937,3.75 2.1875,6.0625 2.10938,2.29687 5.34375,2.29687 2.29688,0 3.89063,-0.9375 1.59375,-0.9375 2.78125,-2.48437 l 2.65625,2.0625 q -3.1875,4.90625 -9.5625,4.90625 z m -0.54688,-22.73438 q -2.625,0 -4.40625,1.90625 -1.78125,1.90625 -2.20312,5.35938 h 12.70312 v -0.32813 q -0.1875,-3.3125 -1.78125,-5.125 -1.59375,-1.8125 -4.3125,-1.8125 z m 15.53907,19.98438 q 0,-1.125 0.67187,-1.875 0.67188,-0.75 2,-0.75 1.34375,0 2.03125,0.75 0.6875,0.75 0.6875,1.875 0,1.07812 -0.6875,1.8125 -0.6875,0.73437 -2.03125,0.73437 -1.32812,0 -2,-0.73437 -0.67187,-0.73438 -0.67187,-1.8125 z m 22.71093,-0.79688 q 2.32813,0 4.0625,-1.40625 1.73438,-1.40625 1.92188,-3.51562 h 4.09375 q -0.10938,2.1875 -1.5,4.15625 -1.375,1.96875 -3.6875,3.14062 -2.3125,1.17188 -4.89063,1.17188 -5.17187,0 -8.23437,-3.45313 -3.0625,-3.46875 -3.0625,-9.46875 v -0.71875 q 0,-3.70312 1.35937,-6.57812 1.35938,-2.89063 3.90625,-4.48438 2.54688,-1.59375 6.01563,-1.59375 4.26562,0 7.07812,2.5625 2.82813,2.54688 3.01563,6.625 h -4.09375 q -0.1875,-2.46875 -1.875,-4.04687 -1.67188,-1.57813 -4.125,-1.57813 -3.3125,0 -5.125,2.375 -1.8125,2.375 -1.8125,6.875 v 0.82813 q 0,4.375 1.79687,6.75 1.8125,2.35937 5.15625,2.35937 z m 13.8125,-9.84375 q 0,-3.71875 1.45313,-6.6875 1.46875,-2.98437 4.07812,-4.59375 2.625,-1.625 5.96875,-1.625 5.1875,0 8.375,3.59375 3.20313,3.57813 3.20313,9.53125 v 0.29688 q 0,3.70312 -1.42188,6.65625 -1.40625,2.9375 -4.04687,4.57812 -2.64063,1.64063 -6.0625,1.64063 -5.15625,0 -8.35938,-3.57813 -3.1875,-3.59375 -3.1875,-9.5 z m 4.35938,0.51563 q 0,4.21875 1.95312,6.78125 1.95313,2.54687 5.23438,2.54687 3.3125,0 5.25,-2.57812 1.95312,-2.59375 1.95312,-7.26563 0,-4.17187 -1.98437,-6.75 -1.98438,-2.59375 -5.26563,-2.59375 -3.20312,0 -5.17187,2.5625 -1.96875,2.54688 -1.96875,7.29688 z m 28.23437,-12.95313 0.125,2.8125 q 2.78125,-3.28125 7.51563,-3.28125 5.32812,0 7.25,4.07813 1.26562,-1.82813 3.28125,-2.95313 2.03125,-1.125 4.79687,-1.125 8.34375,0 8.48438,8.82813 v 17 h -4.32813 v -16.73438 q 0,-2.71875 -1.25,-4.0625 -1.23437,-1.35937 -4.17187,-1.35937 -2.40625,0 -4,1.45312 -1.59375,1.4375 -1.85938,3.875 v 16.82813 h -4.35937 v -16.625 q 0,-5.53125 -5.40625,-5.53125 -4.26563,0 -5.84375,3.64062 v 18.51563 h -4.32813 v -25.35938 z"
     fill-rule="nonzero"
     id="path6"
     clip-path="url(#clipPath7)"
     transform="translate(-231.72952,-262.79523)" />
</svg>
